<svg class="animated" id="freepik_stories-pharmacist" xmlns="http://www.w3.org/2000/svg" viewBox="0 0 500 500" version="1.1" xmlns:xlink="http://www.w3.org/1999/xlink" xmlns:svgjs="http://svgjs.com/svgjs"><style>svg#freepik_stories-pharmacist:not(.animated) .animable {opacity: 0;}svg#freepik_stories-pharmacist.animated #freepik--Character--inject-65 {animation: 1s 1 forwards cubic-bezier(.36,-0.01,.5,1.38) slideLeft;animation-delay: 1s;opacity: 0}            @keyframes slideLeft {                0% {                    opacity: 0;                    transform: translateX(-30px);                }                100% {                    opacity: 1;                    transform: translateX(0);                }            }        .animator-hidden { display: none; }</style><g id="freepik--background-complete--inject-65" class="animable animator-active animator-hidden" style="transform-origin: 250px 156.55px;"><rect x="417.61" y="265.15" width="26.48" height="11.19" style="fill: rgb(235, 235, 235); transform-origin: 430.85px 270.745px;" id="elbbk0u3v1xb8" class="animable"></rect><rect x="417.61" y="36.76" width="26.48" height="11.19" style="fill: rgb(235, 235, 235); transform-origin: 430.85px 42.355px;" id="el8buuvlifl16" class="animable"></rect><rect x="432.38" y="50.87" width="26.48" height="11.19" style="fill: rgb(235, 235, 235); transform-origin: 445.62px 56.465px;" id="elluf9xddsp2s" class="animable"></rect><rect x="41.14" y="36.78" width="26.48" height="11.19" style="fill: rgb(235, 235, 235); transform-origin: 54.38px 42.375px;" id="elikh95w13xgk" class="animable"></rect><g id="elyd5vs3qqis9"><rect x="194.59" y="159.45" width="26.48" height="11.19" style="fill: rgb(235, 235, 235); transform-origin: 207.83px 165.045px; transform: rotate(180deg);" class="animable"></rect></g><g id="ell3v8asr408"><rect x="209.36" y="145.34" width="26.48" height="11.19" style="fill: rgb(235, 235, 235); transform-origin: 222.6px 150.935px; transform: rotate(180deg);" class="animable"></rect></g><g id="el5mv0l4ail4i"><circle cx="294.45" cy="94.95" r="25.75" style="fill: rgb(235, 235, 235); transform-origin: 294.45px 94.95px; transform: rotate(-64.57deg);" class="animable"></circle></g><g id="el2rbqiu5vhkp"><circle cx="295.63" cy="95.52" r="24.57" style="fill: rgb(219, 219, 219); transform-origin: 295.63px 95.52px; transform: rotate(-22.15deg);" class="animable"></circle></g><g id="elj5alwgxcfm"><circle cx="295.63" cy="95.52" r="23.02" style="fill: rgb(255, 255, 255); transform-origin: 295.63px 95.52px; transform: rotate(-22.17deg);" class="animable"></circle></g><g id="el409pe073p94"><path d="M318.13,90.64c-10.49,6.35-27.71,16.77-37.34,22.48a22.93,22.93,0,0,1-6.29-8.46l31.84-29.51A23.07,23.07,0,0,1,318.13,90.64Z" style="fill: rgb(235, 235, 235); opacity: 0.5; transform-origin: 296.315px 94.135px;" class="animable"></path></g><g id="elhtfndxcand"><path d="M318.63,96.33a22.91,22.91,0,0,1-1.52,7.48L288.4,117.39a23.35,23.35,0,0,1-3.63-1.56C293.45,110.82,309.29,101.7,318.63,96.33Z" style="fill: rgb(235, 235, 235); opacity: 0.5; transform-origin: 301.7px 106.86px;" class="animable"></path></g><rect x="295.41" y="74.18" width="0.44" height="3.49" style="fill: rgb(199, 199, 199); transform-origin: 295.63px 75.925px;" id="el17og4ontpid" class="animable"></rect><g id="el0tnhfmniwkcg"><rect x="285.6" y="76.8" width="0.45" height="3.49" style="fill: rgb(199, 199, 199); transform-origin: 285.825px 78.545px; transform: rotate(-30deg);" class="animable"></rect></g><g id="el7gjdko0d7nl"><rect x="278.43" y="83.98" width="0.44" height="3.49" style="fill: rgb(199, 199, 199); transform-origin: 278.65px 85.725px; transform: rotate(-60deg);" class="animable"></rect></g><rect x="274.28" y="95.3" width="3.49" height="0.44" style="fill: rgb(199, 199, 199); transform-origin: 276.025px 95.52px;" id="elmr5fw19sjlp" class="animable"></rect><g id="ell6rorh23bal"><rect x="276.91" y="105.1" width="3.49" height="0.44" style="fill: rgb(199, 199, 199); transform-origin: 278.655px 105.32px; transform: rotate(-30deg);" class="animable"></rect></g><g id="el3afkqouvzc1"><rect x="284.08" y="112.28" width="3.49" height="0.45" style="fill: rgb(199, 199, 199); transform-origin: 285.825px 112.505px; transform: rotate(-60.03deg);" class="animable"></rect></g><rect x="295.41" y="113.38" width="0.44" height="3.49" style="fill: rgb(199, 199, 199); transform-origin: 295.63px 115.125px;" id="elotsbpmtmueh" class="animable"></rect><g id="elu9lslfi1da"><rect x="305.21" y="110.76" width="0.45" height="3.49" style="fill: rgb(199, 199, 199); transform-origin: 305.435px 112.505px; transform: rotate(-29.8865deg);" class="animable"></rect></g><g id="elfsqpd4ou5li"><rect x="312.38" y="103.58" width="0.44" height="3.49" style="fill: rgb(199, 199, 199); transform-origin: 312.6px 105.325px; transform: rotate(-60deg);" class="animable"></rect></g><rect x="313.49" y="95.3" width="3.49" height="0.44" style="fill: rgb(199, 199, 199); transform-origin: 315.235px 95.52px;" id="el09vsdjtb4p6" class="animable"></rect><g id="elrwiw33dkga"><rect x="310.86" y="85.5" width="3.49" height="0.44" style="fill: rgb(199, 199, 199); transform-origin: 312.605px 85.72px; transform: rotate(-30deg);" class="animable"></rect></g><g id="elkt6fk7x8y7o"><rect x="303.69" y="78.32" width="3.49" height="0.45" style="fill: rgb(199, 199, 199); transform-origin: 305.435px 78.545px; transform: rotate(-60.03deg);" class="animable"></rect></g><polygon points="295.96 75.75 296.72 97.08 294.54 97.05 295.37 75.75 295.96 75.75" style="fill: rgb(199, 199, 199); transform-origin: 295.63px 86.415px;" id="el5bt3gjcwsoy" class="animable"></polygon><polygon points="309.25 88.09 294.9 97.25 293.86 95.33 308.96 87.57 309.25 88.09" style="fill: rgb(166, 166, 166); transform-origin: 301.555px 92.41px;" id="elzn3v7onkahm" class="animable"></polygon><path d="M296.37,95.52a.74.74,0,0,1-.74.75.75.75,0,1,1,0-1.49A.74.74,0,0,1,296.37,95.52Z" style="fill: rgb(199, 199, 199); transform-origin: 295.582px 95.525px;" id="ela4cu44wxzdl" class="animable"></path><rect x="345.77" y="89.22" width="111.4" height="139" style="fill: rgb(235, 235, 235); transform-origin: 401.47px 158.72px;" id="elpex6dlub27d" class="animable"></rect><rect x="350.55" y="94.13" width="101.85" height="129.27" style="fill: rgb(255, 255, 255); transform-origin: 401.475px 158.765px;" id="el25aozfijx0e" class="animable"></rect><path d="M389.05,129.44c-8.37-.87-14.61,9.61-20,26s-4.84,25.67-4.13,28.36,3.65,8.37,9.45,9,10.11-3.77,13.22-6.28,9.44-3.65,10.76-9.39-1-25-1.37-28.52S396.47,130.22,389.05,129.44Z" style="fill: rgb(219, 219, 219); transform-origin: 381.615px 161.125px;" id="elorblvpawlt" class="animable"></path><path d="M395.69,178.62c-1.52,3.43-7.49,3.74-9.33,5.82s-7.09,6.37-11.16,6.61-7.1-4.38-8.13-6.77c-.76-1.75-1.09-7.6.49-16.39a100.78,100.78,0,0,1,2.62-11,92.42,92.42,0,0,1,3.17-9c3.89-9.43,8.37-15.1,11.5-16.16,10.44-3.5,9.09,12,10.2,18.58.37,2.19.73,5.66,1,9.44.14,2.13.26,4.37.33,6.54C396.56,171.87,396.42,177,395.69,178.62Z" style="fill: rgb(235, 235, 235); transform-origin: 381.444px 161.141px;" id="elymwypj24don" class="animable"></path><path d="M375.25,150.14a.79.79,0,0,0-1.14-.71,2.31,2.31,0,0,0-1.08,1.65c-.12.53,0,1.42.71,1.34.46-.06.75-.54,1-.9A2.31,2.31,0,0,0,375.25,150.14Z" style="fill: rgb(219, 219, 219); transform-origin: 374.12px 150.887px;" id="elnv9glgrbcbd" class="animable"></path><path d="M376.12,144.66a2.61,2.61,0,0,0-1,1.68c-.16.52-.4,1.46.39,1.57.63.08.94-.62,1.14-1.08a4.87,4.87,0,0,0,.48-1.56A.67.67,0,0,0,376.12,144.66Z" style="fill: rgb(219, 219, 219); transform-origin: 376.044px 146.242px;" id="el1hhdfz3go47i" class="animable"></path><path d="M377.81,148.62a.56.56,0,0,0-.8-.36,2,2,0,0,0-1,2.21.61.61,0,0,0,.87.39A2.27,2.27,0,0,0,377.81,148.62Z" style="fill: rgb(219, 219, 219); transform-origin: 376.901px 149.563px;" id="elle5q3nxygsf" class="animable"></path><path d="M380.43,142.75a.65.65,0,0,0-1-.65,2.52,2.52,0,0,0-1,2.48.51.51,0,0,0,.64.31A2.76,2.76,0,0,0,380.43,142.75Z" style="fill: rgb(219, 219, 219); transform-origin: 379.415px 143.454px;" id="el94w5ma1jdu" class="animable"></path><path d="M377.79,140.78a2,2,0,0,0-.85.92,1.57,1.57,0,0,0-.15,1.18.33.33,0,0,0,.47.21,2.48,2.48,0,0,0,1.32-1.82C378.65,140.85,378.11,140.62,377.79,140.78Z" style="fill: rgb(219, 219, 219); transform-origin: 377.661px 141.928px;" id="elyh7sr9r0dy" class="animable"></path><path d="M380.38,137.83a2.28,2.28,0,0,0-1.32,1.93.61.61,0,0,0,.88.55,3,3,0,0,0,1.17-1.88A.52.52,0,0,0,380.38,137.83Z" style="fill: rgb(219, 219, 219); transform-origin: 380.094px 139.075px;" id="el7rgtt2w7ptr" class="animable"></path><path d="M382.79,135.4a.53.53,0,0,0-.63-.39c-.36.09-.53.38-.72.67a1,1,0,0,0-.24.86.39.39,0,0,0,.36.3,1,1,0,0,0,.84-.46,3,3,0,0,0,.28-.34A.85.85,0,0,0,382.79,135.4Z" style="fill: rgb(219, 219, 219); transform-origin: 381.996px 135.919px;" id="el8f1hk4s8exp" class="animable"></path><path d="M382.41,140.36a.54.54,0,0,0-.66-.4,1.23,1.23,0,0,0-.79.81c-.16.34-.25,1,.24,1.11s.7-.21.91-.53c.06-.11.14-.22.2-.33A1,1,0,0,0,382.41,140.36Z" style="fill: rgb(219, 219, 219); transform-origin: 381.63px 140.923px;" id="el12dzx88as1b" class="animable"></path><path d="M380.25,146.24a.63.63,0,0,0-.91-.57,1.85,1.85,0,0,0-.79,2,.54.54,0,0,0,.76.35,1.76,1.76,0,0,0,.64-.74A2,2,0,0,0,380.25,146.24Z" style="fill: rgb(219, 219, 219); transform-origin: 379.373px 146.84px;" id="eln3mh4lh2ki" class="animable"></path><path d="M375.05,152.69a2.37,2.37,0,0,0-.63,1.55c0,.34.12,1.27.69,1.06a1.35,1.35,0,0,0,.71-.85,4.18,4.18,0,0,0,.41-1.22A.71.71,0,0,0,375.05,152.69Z" style="fill: rgb(219, 219, 219); transform-origin: 375.325px 153.921px;" id="elwttqd7cp83" class="animable"></path><path d="M372.33,154.33a2.15,2.15,0,0,0-.58,2,.52.52,0,0,0,.93.15,3.5,3.5,0,0,0,.68-1.7A.62.62,0,0,0,372.33,154.33Z" style="fill: rgb(219, 219, 219); transform-origin: 372.528px 155.441px;" id="elc1w28z7xyt" class="animable"></path><path d="M374,159.06a.62.62,0,0,0-.9-.41,1.37,1.37,0,0,0-.57.62,2.36,2.36,0,0,0-.14.74c0,.51.36,1.15.95.91a1.22,1.22,0,0,0,.58-.81A1.88,1.88,0,0,0,374,159.06Z" style="fill: rgb(219, 219, 219); transform-origin: 373.215px 159.774px;" id="el8kwh8da4o5y" class="animable"></path><path d="M371.09,162.2a.56.56,0,0,0-.93-.42,1.61,1.61,0,0,0-.47,1.45.57.57,0,0,0,.93.28A2,2,0,0,0,371.09,162.2Z" style="fill: rgb(219, 219, 219); transform-origin: 370.377px 162.647px;" id="elio295ofbll8" class="animable"></path><path d="M371.63,164.56a.54.54,0,0,0-.63.23.68.68,0,0,0-.09.46.58.58,0,0,0,.16.31.45.45,0,0,0,.53.13.83.83,0,0,0,.16-.09.67.67,0,0,0,.26-.5A.54.54,0,0,0,371.63,164.56Z" style="fill: rgb(219, 219, 219); transform-origin: 371.461px 165.13px;" id="elphzn287l048" class="animable"></path><path d="M385,133.19a.57.57,0,0,0-.64.23.77.77,0,0,0-.09.47.54.54,0,0,0,.17.3.45.45,0,0,0,.53.13l.15-.08a.64.64,0,0,0,.26-.5A.56.56,0,0,0,385,133.19Z" style="fill: rgb(219, 219, 219); transform-origin: 384.822px 133.761px;" id="elfpj14f667mg" class="animable"></path><path d="M413.89,129.44c8.37-.87,14.61,9.61,20,26s4.84,25.67,4.13,28.36-3.65,8.37-9.45,9-10.11-3.77-13.22-6.28-9.45-3.65-10.76-9.39,1-25,1.37-28.52S406.47,130.22,413.89,129.44Z" style="fill: rgb(219, 219, 219); transform-origin: 421.327px 161.125px;" id="elpvzrljxksd" class="animable"></path><path d="M407.25,178.62c1.51,3.43,7.49,3.74,9.33,5.82s7.09,6.37,11.16,6.61,7.1-4.38,8.13-6.77c.76-1.75,1.09-7.6-.49-16.39a100.78,100.78,0,0,0-2.62-11,92.42,92.42,0,0,0-3.17-9c-3.89-9.43-8.37-15.1-11.5-16.16-10.44-3.5-9.09,12-10.2,18.58-.37,2.19-.73,5.66-1,9.44-.14,2.13-.26,4.37-.33,6.54C406.38,171.87,406.52,177,407.25,178.62Z" style="fill: rgb(235, 235, 235); transform-origin: 421.496px 161.141px;" id="el7i2xk9p2fp6" class="animable"></path><path d="M409.76,153.39a.6.6,0,0,0-.83,0c-.59.57-1,2.79.28,2.85S410.36,154,409.76,153.39Z" style="fill: rgb(219, 219, 219); transform-origin: 409.283px 154.732px;" id="elgkwipdfa09q" class="animable"></path><path d="M412,156a.45.45,0,0,0-.63,0,2.3,2.3,0,0,0-.37,2.32.77.77,0,0,0,1.41-.11A2.22,2.22,0,0,0,412,156Z" style="fill: rgb(219, 219, 219); transform-origin: 411.69px 157.301px;" id="el0lq7m4cqnby" class="animable"></path><path d="M409,158.55c-.86.34-.9,1.91-.52,2.59a.82.82,0,0,0,1.48-.11C410.13,160.44,410.08,158.09,409,158.55Z" style="fill: rgb(219, 219, 219); transform-origin: 409.142px 160.024px;" id="el0i42rkjv8cod" class="animable"></path><path d="M411.65,162.56a.67.67,0,0,0-1.14-.06,1.58,1.58,0,0,0-.16,1.57.76.76,0,0,0,1.29.06A1.6,1.6,0,0,0,411.65,162.56Z" style="fill: rgb(219, 219, 219); transform-origin: 411.031px 163.335px;" id="el1d2mxy64rbb" class="animable"></path><path d="M409,165.38a.63.63,0,0,0-.89,0,1.12,1.12,0,0,0,.09,1.66.63.63,0,0,0,.77-.05A1.23,1.23,0,0,0,409,165.38Z" style="fill: rgb(219, 219, 219); transform-origin: 408.535px 166.172px;" id="elf0lvaoxztr" class="animable"></path><path d="M410,168.55h0a.52.52,0,0,0-.54,0h0a.6.6,0,0,0-.29.62.56.56,0,0,0,.52.44.56.56,0,0,0,.53-.31A.58.58,0,0,0,410,168.55Z" style="fill: rgb(219, 219, 219); transform-origin: 409.72px 169.043px;" id="eltjnv4htc11f" class="animable"></path><path d="M412.34,149.93a.51.51,0,0,0-.77-.14,3.3,3.3,0,0,0-.6,2.68.84.84,0,0,0,.9.66.85.85,0,0,0,.78-.8A3.67,3.67,0,0,0,412.34,149.93Z" style="fill: rgb(219, 219, 219); transform-origin: 411.813px 151.403px;" id="el864e110ucoi" class="animable"></path><path d="M410.35,147.33a.45.45,0,0,0-.6-.19,2.12,2.12,0,0,0-1,1.71c-.09.61-.11,1.62.64,1.82s1.07-.73,1.15-1.32A3,3,0,0,0,410.35,147.33Z" style="fill: rgb(219, 219, 219); transform-origin: 409.67px 148.895px;" id="elmqrzorm2pjk" class="animable"></path><path d="M413,146.18a1.65,1.65,0,0,0-.38-1.09.6.6,0,0,0-.84-.05,1.64,1.64,0,0,0-.49,1.05,3,3,0,0,0,0,1.15.81.81,0,0,0,1.55.09A3,3,0,0,0,413,146.18Z" style="fill: rgb(219, 219, 219); transform-origin: 412.12px 146.378px;" id="elmee9qiboai" class="animable"></path><path d="M411.12,141.73a.46.46,0,0,0-.75-.24,1.76,1.76,0,0,0-.54,2,.69.69,0,0,0,1.18.07A2.11,2.11,0,0,0,411.12,141.73Z" style="fill: rgb(219, 219, 219); transform-origin: 410.496px 142.618px;" id="elhgyymxtyxg" class="animable"></path><path d="M414,160.5a1.26,1.26,0,0,0,0-.28.57.57,0,0,0-.14-.28v0h0a.56.56,0,0,0-.73-.22,1.1,1.1,0,0,0-.53.63,1.47,1.47,0,0,0,.05,1,.73.73,0,0,0,.71.39.76.76,0,0,0,.63-.49A1.79,1.79,0,0,0,414,160.5Z" style="fill: rgb(219, 219, 219); transform-origin: 413.285px 160.703px;" id="elrjeczbx5x3i" class="animable"></path><path d="M414.92,154.08c-.11-.37-.39-1-.89-.75-.81.37-.89,1.84-.55,2.53a.78.78,0,0,0,1.41-.11A2.8,2.8,0,0,0,414.92,154.08Z" style="fill: rgb(219, 219, 219); transform-origin: 414.162px 154.765px;" id="eld1japmghjaf" class="animable"></path><path d="M414.79,148.92c-.1-.36-.48-.74-.87-.57a.7.7,0,0,0-.29.19.89.89,0,0,0-.24.55.92.92,0,0,0,.18.78.7.7,0,0,0,1,0,.88.88,0,0,0,.27-.58A1.91,1.91,0,0,0,414.79,148.92Z" style="fill: rgb(219, 219, 219); transform-origin: 414.104px 149.194px;" id="elrc84557cauh" class="animable"></path><path d="M414.36,141.43c0-.39-.33-1.16-.85-1.07s-.83.72-.9,1.17a1.57,1.57,0,0,0,.47,1.58.61.61,0,0,0,.65,0A1.78,1.78,0,0,0,414.36,141.43Z" style="fill: rgb(219, 219, 219); transform-origin: 413.471px 141.778px;" id="el4162wdoflch" class="animable"></path><path d="M412.6,137a.49.49,0,0,0-.56-.1,1.8,1.8,0,0,0-.86,1.74.85.85,0,0,0,.68.86.82.82,0,0,0,.94-.55A2.45,2.45,0,0,0,412.6,137Z" style="fill: rgb(219, 219, 219); transform-origin: 412.043px 138.184px;" id="el1xf6ua7qcto" class="animable"></path><path d="M413.1,134.09a.56.56,0,0,0-.61-.44.79.79,0,0,0-.39.21.92.92,0,0,0-.28.62.65.65,0,0,0,1.26.24A.86.86,0,0,0,413.1,134.09Z" style="fill: rgb(219, 219, 219); transform-origin: 412.485px 134.396px;" id="elzcm2zxvsuul" class="animable"></path><path d="M411,158a6.48,6.48,0,0,1-3-1.22l-.56-.36a17.8,17.8,0,0,1-2.23-1.71l-.1-.09a8.9,8.9,0,0,1-.71-.76c-.48-.56-1-1.24-1.49-1.94-.11-.16-.22-.31-.32-.47-.29-.41-.57-.83-.84-1.23-.15-.22-.3-.44-.43-.66a11.18,11.18,0,0,0-1.43-2,8.4,8.4,0,0,0-.85,1l-.57.71-.37.45c-.2.24-.41.49-.62.72a11,11,0,0,1-.79.85,4.63,4.63,0,0,1-1,.79.69.69,0,0,1-.37.09c-1.11-.12-2.41-2.52-2.35-3.59a1.41,1.41,0,0,1,.29-.65,9.39,9.39,0,0,1,.67-.86c.3-.34.65-.72,1-1.09l.45-.48.64-.66.35-.38a5.69,5.69,0,0,0,1.14-1.54,1.5,1.5,0,0,0,0-.32c0-.15,0-.36-.06-.6,0-.46-.11-1.06-.19-1.76,0-.22,0-.45-.07-.69-.07-.6-.15-1.24-.22-1.91,0-.25-.05-.51-.08-.77-.09-.84-.18-1.71-.26-2.53l-.06-.57c0-.51-.09-1-.12-1.47s-.06-.85-.08-1.22a5.62,5.62,0,0,1,.07-1.75c.27-.61,3-1.21,5.34-1.48,1.77-.21,3.33-.24,3.51,0a7.18,7.18,0,0,1,.07,1.94c0,.32,0,.68,0,1.06h0c0,.67-.07,1.4-.11,2.18,0,.26,0,.53-.05.79,0,.75-.09,1.52-.14,2.29,0,.36-.05.72-.07,1.08,0,.62-.08,1.23-.12,1.79,0,.4-.05.78-.08,1.14s0,.84-.07,1.19,0,.64-.05.88a3.87,3.87,0,0,0,0,.69,12,12,0,0,0,1.75,3.06c.19.26.4.51.61.76s.56.63.85.92.38.39.57.57c.37.36.75.71,1.12,1l1,.83,1.1.9.68.56c.2.17.4.33.57.49a3.72,3.72,0,0,1,.94,1.08C414.39,154.68,411.81,157.85,411,158Z" style="fill: rgb(166, 166, 166); transform-origin: 403.45px 142.841px;" id="elz7k48ipi5vc" class="animable"></path><path d="M405.37,129.89c0,.32,0,.68,0,1.06h0c-1.5.34-3.06.52-4.53.74l-3.44.54c-.31,0-.61.1-.91.13,0-.44-.06-.85-.08-1.22l1.1-.24c1.06-.22,2.13-.4,3.2-.56A34.49,34.49,0,0,1,405.37,129.89Z" style="fill: rgb(199, 199, 199); transform-origin: 400.89px 131.125px;" id="el2c2ep2yeehk" class="animable"></path><path d="M405.23,133.13c0,.26,0,.53-.05.79-1.11.11-2.22.15-3.32.23-1.72.11-3.49.3-5.22.25l-.06-.57c1.59-.26,3.22-.33,4.81-.44C402.66,133.31,403.94,133.18,405.23,133.13Z" style="fill: rgb(199, 199, 199); transform-origin: 400.905px 133.769px;" id="elhcuho4phhyr" class="animable"></path><path d="M405,136.21c0,.36-.05.72-.07,1.08a53.41,53.41,0,0,1-8,.41c0-.25-.05-.51-.08-.77A49.76,49.76,0,0,1,405,136.21Z" style="fill: rgb(199, 199, 199); transform-origin: 400.925px 136.963px;" id="el1h2w9jyt3vq" class="animable"></path><path d="M404.85,139.08c0,.4-.05.78-.08,1.14a54.66,54.66,0,0,1-7.5.08c0-.22,0-.45-.07-.69A52.24,52.24,0,0,1,404.85,139.08Z" style="fill: rgb(199, 199, 199); transform-origin: 401.025px 139.736px;" id="el1xsfiei0u5c" class="animable"></path><path d="M404.7,141.41c0,.35,0,.64-.05.88-.95.09-1.91.14-2.85.2-1.43.09-2.86.22-4.28.17,0-.15,0-.36-.06-.6,1.28-.21,2.57-.28,3.87-.38C402.44,141.59,403.57,141.48,404.7,141.41Z" style="fill: rgb(199, 199, 199); transform-origin: 401.08px 142.041px;" id="elnziwrw0ywc" class="animable"></path><path d="M396.72,151.35a4.63,4.63,0,0,1-1,.79,14.85,14.85,0,0,1-1.42-2,11.26,11.26,0,0,1-1-2.1,9.39,9.39,0,0,1,.67-.86c.43.8.87,1.6,1.35,2.36A20.91,20.91,0,0,0,396.72,151.35Z" style="fill: rgb(199, 199, 199); transform-origin: 395.01px 149.66px;" id="el4m9hjda1jpy" class="animable"></path><path d="M398.13,149.78c-.2.24-.41.49-.62.72a41.72,41.72,0,0,1-2.57-4.46l.45-.48C396.18,146.79,397.26,148.43,398.13,149.78Z" style="fill: rgb(199, 199, 199); transform-origin: 396.535px 148.03px;" id="ell8t2ypoqlga" class="animable"></path><path d="M399.07,148.62l-.57.71c-.37-.59-.71-1.22-1.05-1.79-.51-.86-1-1.75-1.42-2.64l.35-.38c.56.89,1.13,1.77,1.7,2.65C398.39,147.65,398.74,148.13,399.07,148.62Z" style="fill: rgb(199, 199, 199); transform-origin: 397.55px 146.925px;" id="el0iam2zi176y" class="animable"></path><path d="M407,146.8a29.91,29.91,0,0,1-5.22,3.45c-.15-.22-.3-.44-.43-.66,1.15-.93,3.45-2.56,5-3.55C406.58,146.3,406.79,146.55,407,146.8Z" style="fill: rgb(199, 199, 199); transform-origin: 404.175px 148.145px;" id="elrpqhhd5n22o" class="animable"></path><path d="M408.42,148.29a47.51,47.51,0,0,1-5.48,3.66c-.11-.16-.22-.31-.32-.47,1.44-1,3.67-2.67,5.23-3.76Q408.14,148,408.42,148.29Z" style="fill: rgb(199, 199, 199); transform-origin: 405.52px 149.835px;" id="el8y6j4wsjgpd" class="animable"></path><path d="M410.5,150.15a32.17,32.17,0,0,1-5.36,4.5,8.9,8.9,0,0,1-.71-.76,64.3,64.3,0,0,1,5.11-4.57Z" style="fill: rgb(199, 199, 199); transform-origin: 407.465px 151.985px;" id="elupl036fd00j" class="animable"></path><path d="M412.85,152.1a22,22,0,0,1-4.82,4.71l-.56-.36c.86-.85,1.75-1.66,2.61-2.52s1.47-1.55,2.2-2.32C412.48,151.78,412.68,151.94,412.85,152.1Z" style="fill: rgb(199, 199, 199); transform-origin: 410.16px 154.21px;" id="eljrbd1634ol" class="animable"></path><rect x="376.64" y="100.2" width="49.66" height="3.77" style="fill: rgb(199, 199, 199); transform-origin: 401.47px 102.085px;" id="elny87c961b5n" class="animable"></rect><rect x="387.44" y="106.86" width="28.05" height="3.77" style="fill: rgb(199, 199, 199); transform-origin: 401.465px 108.745px;" id="el6h72vkmglln" class="animable"></rect></g><g id="freepik--Shadow--inject-65" class="animable animator-hidden" style="transform-origin: 250px 441.02px;"><ellipse cx="250" cy="441.02" rx="209.66" ry="18.77" style="fill: rgb(235, 235, 235); transform-origin: 250px 441.02px;" id="elgvrzlp3qxyt" class="animable"></ellipse></g><g id="freepik--Shelf--inject-65" class="animable" style="transform-origin: 134.07px 224.055px;"><g id="elfy80l6kxnb9"><rect x="37.33" y="69.2" width="193.48" height="309.71" style="fill: rgb(199, 199, 199); transform-origin: 134.07px 224.055px; transform: rotate(180deg);" class="animable"></rect></g><g id="elfw72ou6vddu"><rect x="47.18" y="80.32" width="173.76" height="74.99" style="fill: rgb(166, 166, 166); transform-origin: 134.06px 117.815px; transform: rotate(180deg);" class="animable"></rect></g><g id="elgwwny8ljfi"><rect x="47.18" y="168.81" width="173.76" height="74.99" style="fill: rgb(166, 166, 166); transform-origin: 134.06px 206.305px; transform: rotate(180deg);" class="animable"></rect></g><g id="ely0ceuqhh7p"><rect x="47.18" y="257.31" width="173.76" height="74.99" style="fill: rgb(166, 166, 166); transform-origin: 134.06px 294.805px; transform: rotate(180deg);" class="animable"></rect></g><rect x="91.59" y="174.41" width="17.8" height="69.39" style="fill: rgb(255, 255, 255); transform-origin: 100.49px 209.105px;" id="el0vucghpkp4j" class="animable"></rect><rect x="91.59" y="197.31" width="17.8" height="14" style="fill: rgb(0, 134, 199); transform-origin: 100.49px 204.31px;" id="elsch23qu3hph" class="animable"></rect><rect x="91.59" y="217.16" width="17.8" height="8.14" style="fill: rgb(0, 134, 199); transform-origin: 100.49px 221.23px;" id="eldws5qqs3m5m" class="animable"></rect><rect x="71.38" y="174.41" width="17.8" height="69.39" style="fill: rgb(255, 255, 255); transform-origin: 80.28px 209.105px;" id="elyd66a6t1ooc" class="animable"></rect><rect x="71.38" y="197.31" width="17.8" height="14" style="fill: rgb(69, 90, 100); transform-origin: 80.28px 204.31px;" id="el3l30sqe361g" class="animable"></rect><rect x="71.38" y="217.16" width="17.8" height="8.14" style="fill: rgb(69, 90, 100); transform-origin: 80.28px 221.23px;" id="elnxorlxqyeec" class="animable"></rect><rect x="51.17" y="174.41" width="17.8" height="69.39" style="fill: rgb(255, 255, 255); transform-origin: 60.07px 209.105px;" id="eldqmgyyix8ud" class="animable"></rect><rect x="51.17" y="197.31" width="17.8" height="14" style="fill: rgb(0, 134, 199); transform-origin: 60.07px 204.31px;" id="elebuwdprr3bo" class="animable"></rect><rect x="51.17" y="217.16" width="17.8" height="8.14" style="fill: rgb(0, 134, 199); transform-origin: 60.07px 221.23px;" id="eljf3w0mc09n" class="animable"></rect><g id="elafovacirc6"><rect x="50.52" y="128.61" width="16.04" height="26.69" style="fill: rgb(255, 255, 255); transform-origin: 58.54px 141.955px; transform: rotate(180deg);" class="animable"></rect></g><g id="elbrik6h9hrpc"><rect x="48.32" y="124.07" width="20.44" height="4.54" style="fill: rgb(0, 134, 199); transform-origin: 58.54px 126.34px; transform: rotate(180deg);" class="animable"></rect></g><g id="elyi4l1cz3rhr"><rect x="52.57" y="134.49" width="11.92" height="16.46" style="fill: rgb(69, 90, 100); transform-origin: 58.53px 142.72px; transform: rotate(180deg);" class="animable"></rect></g><g id="elf7o5ayhjh4m"><rect x="50.52" y="96.33" width="16.04" height="26.69" style="fill: rgb(255, 255, 255); transform-origin: 58.54px 109.675px; transform: rotate(180deg);" class="animable"></rect></g><g id="elnecgtvnedj9"><rect x="48.32" y="91.79" width="20.44" height="4.54" style="fill: rgb(0, 134, 199); transform-origin: 58.54px 94.06px; transform: rotate(180deg);" class="animable"></rect></g><g id="elgvg5v3rihfr"><rect x="52.57" y="102.21" width="11.92" height="16.46" style="fill: rgb(69, 90, 100); transform-origin: 58.53px 110.44px; transform: rotate(180deg);" class="animable"></rect></g><g id="el6zai3fpu51o"><rect x="72.26" y="128.61" width="16.04" height="26.69" style="fill: rgb(255, 255, 255); transform-origin: 80.28px 141.955px; transform: rotate(180deg);" class="animable"></rect></g><g id="elbwf21njyh3"><rect x="70.06" y="124.07" width="20.44" height="4.54" style="fill: rgb(0, 134, 199); transform-origin: 80.28px 126.34px; transform: rotate(180deg);" class="animable"></rect></g><g id="elsiiy1fq7a3"><rect x="74.32" y="134.49" width="11.92" height="16.46" style="fill: rgb(69, 90, 100); transform-origin: 80.28px 142.72px; transform: rotate(180deg);" class="animable"></rect></g><g id="elceewagola45"><rect x="72.26" y="96.33" width="16.04" height="26.69" style="fill: rgb(255, 255, 255); transform-origin: 80.28px 109.675px; transform: rotate(180deg);" class="animable"></rect></g><g id="elxpw6ois17m"><rect x="70.06" y="91.79" width="20.44" height="4.54" style="fill: rgb(0, 134, 199); transform-origin: 80.28px 94.06px; transform: rotate(180deg);" class="animable"></rect></g><g id="elcrptytvs4z"><rect x="74.32" y="102.21" width="11.92" height="16.46" style="fill: rgb(69, 90, 100); transform-origin: 80.28px 110.44px; transform: rotate(180deg);" class="animable"></rect></g><g id="elz6rqqiipa"><rect x="94.01" y="128.61" width="16.04" height="26.69" style="fill: rgb(255, 255, 255); transform-origin: 102.03px 141.955px; transform: rotate(180deg);" class="animable"></rect></g><g id="elt2163nqbh8"><rect x="91.81" y="124.07" width="20.44" height="4.54" style="fill: rgb(0, 134, 199); transform-origin: 102.03px 126.34px; transform: rotate(180deg);" class="animable"></rect></g><g id="elptodfr8gmz"><rect x="96.07" y="134.49" width="11.92" height="16.46" style="fill: rgb(69, 90, 100); transform-origin: 102.03px 142.72px; transform: rotate(180deg);" class="animable"></rect></g><g id="elifq0kspak4c"><rect x="94.01" y="96.33" width="16.04" height="26.69" style="fill: rgb(255, 255, 255); transform-origin: 102.03px 109.675px; transform: rotate(180deg);" class="animable"></rect></g><g id="eljp58q0g00xe"><rect x="91.81" y="91.79" width="20.44" height="4.54" style="fill: rgb(0, 134, 199); transform-origin: 102.03px 94.06px; transform: rotate(180deg);" class="animable"></rect></g><g id="el1lytxpgeq2s"><rect x="96.07" y="102.21" width="11.92" height="16.46" style="fill: rgb(69, 90, 100); transform-origin: 102.03px 110.44px; transform: rotate(180deg);" class="animable"></rect></g><g id="elcbrl88un6ks"><rect x="115.76" y="128.61" width="16.04" height="26.69" style="fill: rgb(255, 255, 255); transform-origin: 123.78px 141.955px; transform: rotate(180deg);" class="animable"></rect></g><g id="elxab7jkidti"><rect x="113.56" y="124.07" width="20.44" height="4.54" style="fill: rgb(0, 134, 199); transform-origin: 123.78px 126.34px; transform: rotate(180deg);" class="animable"></rect></g><g id="el39ork8plaxk"><rect x="117.82" y="134.49" width="11.92" height="16.46" style="fill: rgb(69, 90, 100); transform-origin: 123.78px 142.72px; transform: rotate(180deg);" class="animable"></rect></g><g id="elvz3u839v2o"><rect x="115.76" y="96.33" width="16.04" height="26.69" style="fill: rgb(255, 255, 255); transform-origin: 123.78px 109.675px; transform: rotate(180deg);" class="animable"></rect></g><g id="elpspndlqskoc"><rect x="113.56" y="91.79" width="20.44" height="4.54" style="fill: rgb(0, 134, 199); transform-origin: 123.78px 94.06px; transform: rotate(180deg);" class="animable"></rect></g><g id="elrtcz8bghg3e"><rect x="117.82" y="102.21" width="11.92" height="16.46" style="fill: rgb(69, 90, 100); transform-origin: 123.78px 110.44px; transform: rotate(180deg);" class="animable"></rect></g><g id="elf5xmfdfzt9s"><path d="M199,218.72h18.5a0,0,0,0,1,0,0v19.77a5.31,5.31,0,0,1-5.31,5.31h-7.88a5.31,5.31,0,0,1-5.31-5.31V218.72A0,0,0,0,1,199,218.72Z" style="fill: rgb(255, 255, 255); transform-origin: 208.25px 231.26px; transform: rotate(180deg);" class="animable"></path></g><g id="el3y1mkjiriy8"><rect x="202.87" y="216.24" width="10.72" height="2.56" style="fill: rgb(255, 255, 255); transform-origin: 208.23px 217.52px; transform: rotate(180deg);" class="animable"></rect></g><g id="eljl8i9em50ll"><rect x="200.14" y="213.51" width="16.18" height="2.73" style="fill: rgb(0, 134, 199); transform-origin: 208.23px 214.875px; transform: rotate(180deg);" class="animable"></rect></g><g id="elvq4x6pqpck"><rect x="201.94" y="224.8" width="15.53" height="13.54" style="fill: rgb(69, 90, 100); transform-origin: 209.705px 231.57px; transform: rotate(180deg);" class="animable"></rect></g><g id="elko1h6h0is4"><path d="M178.89,218.72h18.5a0,0,0,0,1,0,0v19.77a5.31,5.31,0,0,1-5.31,5.31H184.2a5.31,5.31,0,0,1-5.31-5.31V218.72A0,0,0,0,1,178.89,218.72Z" style="fill: rgb(255, 255, 255); transform-origin: 188.14px 231.26px; transform: rotate(180deg);" class="animable"></path></g><g id="elhowdzhm5tjw"><rect x="182.78" y="216.24" width="10.72" height="2.56" style="fill: rgb(255, 255, 255); transform-origin: 188.14px 217.52px; transform: rotate(180deg);" class="animable"></rect></g><g id="eli55277ij6ne"><rect x="180.05" y="213.51" width="16.18" height="2.73" style="fill: rgb(0, 134, 199); transform-origin: 188.14px 214.875px; transform: rotate(180deg);" class="animable"></rect></g><g id="elhssnkkocq38"><rect x="181.86" y="224.8" width="15.53" height="13.54" style="fill: rgb(69, 90, 100); transform-origin: 189.625px 231.57px; transform: rotate(180deg);" class="animable"></rect></g><g id="elvam7fm2m8ja"><path d="M158.8,218.72h18.5a0,0,0,0,1,0,0v19.77A5.31,5.31,0,0,1,172,243.8h-7.88a5.31,5.31,0,0,1-5.31-5.31V218.72A0,0,0,0,1,158.8,218.72Z" style="fill: rgb(255, 255, 255); transform-origin: 168.05px 231.26px; transform: rotate(180deg);" class="animable"></path></g><g id="el69u8mjya8ae"><rect x="162.69" y="216.24" width="10.72" height="2.56" style="fill: rgb(255, 255, 255); transform-origin: 168.05px 217.52px; transform: rotate(180deg);" class="animable"></rect></g><g id="elorn1dxs3cyr"><rect x="159.96" y="213.51" width="16.18" height="2.73" style="fill: rgb(0, 134, 199); transform-origin: 168.05px 214.875px; transform: rotate(180deg);" class="animable"></rect></g><g id="el34t178ho1d2"><rect x="161.77" y="224.8" width="15.53" height="13.54" style="fill: rgb(69, 90, 100); transform-origin: 169.535px 231.57px; transform: rotate(180deg);" class="animable"></rect></g><g id="eltidfleh1w8k"><path d="M138.71,218.72h18.5a0,0,0,0,1,0,0v19.77a5.31,5.31,0,0,1-5.31,5.31H144a5.31,5.31,0,0,1-5.31-5.31V218.72A0,0,0,0,1,138.71,218.72Z" style="fill: rgb(255, 255, 255); transform-origin: 147.95px 231.26px; transform: rotate(180deg);" class="animable"></path></g><g id="elxtzy854b6po"><rect x="142.6" y="216.24" width="10.72" height="2.56" style="fill: rgb(255, 255, 255); transform-origin: 147.96px 217.52px; transform: rotate(180deg);" class="animable"></rect></g><g id="elby12ofrcnpg"><rect x="139.87" y="213.51" width="16.18" height="2.73" style="fill: rgb(0, 134, 199); transform-origin: 147.96px 214.875px; transform: rotate(180deg);" class="animable"></rect></g><g id="ellp17woost6"><rect x="141.68" y="224.8" width="15.53" height="13.54" style="fill: rgb(69, 90, 100); transform-origin: 149.445px 231.57px; transform: rotate(180deg);" class="animable"></rect></g><g id="elkadzi4wvrdr"><path d="M118.63,218.72h18.5a0,0,0,0,1,0,0v19.77a5.31,5.31,0,0,1-5.31,5.31h-7.88a5.31,5.31,0,0,1-5.31-5.31V218.72A0,0,0,0,1,118.63,218.72Z" style="fill: rgb(255, 255, 255); transform-origin: 127.88px 231.26px; transform: rotate(180deg);" class="animable"></path></g><g id="ely011leors7a"><rect x="122.51" y="216.24" width="10.72" height="2.56" style="fill: rgb(255, 255, 255); transform-origin: 127.87px 217.52px; transform: rotate(180deg);" class="animable"></rect></g><g id="el1xyvrdap5st"><rect x="119.78" y="213.51" width="16.18" height="2.73" style="fill: rgb(0, 134, 199); transform-origin: 127.87px 214.875px; transform: rotate(180deg);" class="animable"></rect></g><g id="el3u8xnu03r2f"><rect x="121.59" y="224.8" width="15.53" height="13.54" style="fill: rgb(69, 90, 100); transform-origin: 129.355px 231.57px; transform: rotate(180deg);" class="animable"></rect></g><g id="elkmb05hr6puf"><path d="M199,187.38h18.5a0,0,0,0,1,0,0v19.77a5.31,5.31,0,0,1-5.31,5.31h-7.88a5.31,5.31,0,0,1-5.31-5.31V187.38A0,0,0,0,1,199,187.38Z" style="fill: rgb(255, 255, 255); transform-origin: 208.25px 199.92px; transform: rotate(180deg);" class="animable"></path></g><g id="elj3yu8dyus5n"><rect x="202.87" y="184.9" width="10.72" height="2.56" style="fill: rgb(255, 255, 255); transform-origin: 208.23px 186.18px; transform: rotate(180deg);" class="animable"></rect></g><g id="elzth8g9u1pfi"><rect x="200.14" y="182.16" width="16.18" height="2.73" style="fill: rgb(0, 134, 199); transform-origin: 208.23px 183.525px; transform: rotate(180deg);" class="animable"></rect></g><g id="elyek5jrhfnk"><rect x="201.94" y="193.45" width="15.53" height="13.54" style="fill: rgb(69, 90, 100); transform-origin: 209.705px 200.22px; transform: rotate(180deg);" class="animable"></rect></g><g id="el7qbv38deku"><path d="M178.89,187.38h18.5a0,0,0,0,1,0,0v19.77a5.31,5.31,0,0,1-5.31,5.31H184.2a5.31,5.31,0,0,1-5.31-5.31V187.38A0,0,0,0,1,178.89,187.38Z" style="fill: rgb(255, 255, 255); transform-origin: 188.14px 199.92px; transform: rotate(180deg);" class="animable"></path></g><g id="eljunjw4nat5k"><rect x="182.78" y="184.9" width="10.72" height="2.56" style="fill: rgb(255, 255, 255); transform-origin: 188.14px 186.18px; transform: rotate(180deg);" class="animable"></rect></g><g id="el09zqr2ywy1fh"><rect x="180.05" y="182.16" width="16.18" height="2.73" style="fill: rgb(0, 134, 199); transform-origin: 188.14px 183.525px; transform: rotate(180deg);" class="animable"></rect></g><g id="elh5dyg0884if"><rect x="181.86" y="193.45" width="15.53" height="13.54" style="fill: rgb(69, 90, 100); transform-origin: 189.625px 200.22px; transform: rotate(180deg);" class="animable"></rect></g><g id="elgxqd2a5notd"><path d="M158.8,187.38h18.5a0,0,0,0,1,0,0v19.77a5.31,5.31,0,0,1-5.31,5.31h-7.88a5.31,5.31,0,0,1-5.31-5.31V187.38A0,0,0,0,1,158.8,187.38Z" style="fill: rgb(255, 255, 255); transform-origin: 168.05px 199.92px; transform: rotate(180deg);" class="animable"></path></g><g id="eleu3dzceztmd"><rect x="162.69" y="184.9" width="10.72" height="2.56" style="fill: rgb(255, 255, 255); transform-origin: 168.05px 186.18px; transform: rotate(180deg);" class="animable"></rect></g><g id="elnsvmguc3wye"><rect x="159.96" y="182.16" width="16.18" height="2.73" style="fill: rgb(0, 134, 199); transform-origin: 168.05px 183.525px; transform: rotate(180deg);" class="animable"></rect></g><g id="elliy416sio3a"><rect x="161.77" y="193.45" width="15.53" height="13.54" style="fill: rgb(69, 90, 100); transform-origin: 169.535px 200.22px; transform: rotate(180deg);" class="animable"></rect></g><g id="elvbj1izyakyg"><path d="M138.71,187.38h18.5a0,0,0,0,1,0,0v19.77a5.31,5.31,0,0,1-5.31,5.31H144a5.31,5.31,0,0,1-5.31-5.31V187.38A0,0,0,0,1,138.71,187.38Z" style="fill: rgb(255, 255, 255); transform-origin: 147.95px 199.92px; transform: rotate(180deg);" class="animable"></path></g><g id="elh7i7limvf3"><rect x="142.6" y="184.9" width="10.72" height="2.56" style="fill: rgb(255, 255, 255); transform-origin: 147.96px 186.18px; transform: rotate(180deg);" class="animable"></rect></g><g id="elli65vhx0uzr"><rect x="139.87" y="182.16" width="16.18" height="2.73" style="fill: rgb(0, 134, 199); transform-origin: 147.96px 183.525px; transform: rotate(180deg);" class="animable"></rect></g><g id="el2v2ugslke5y"><rect x="141.68" y="193.45" width="15.53" height="13.54" style="fill: rgb(69, 90, 100); transform-origin: 149.445px 200.22px; transform: rotate(180deg);" class="animable"></rect></g><g id="el8i7kqg2lsam"><path d="M118.63,187.38h18.5a0,0,0,0,1,0,0v19.77a5.31,5.31,0,0,1-5.31,5.31h-7.88a5.31,5.31,0,0,1-5.31-5.31V187.38A0,0,0,0,1,118.63,187.38Z" style="fill: rgb(255, 255, 255); transform-origin: 127.88px 199.92px; transform: rotate(180deg);" class="animable"></path></g><g id="elmmuczilap"><rect x="122.51" y="184.9" width="10.72" height="2.56" style="fill: rgb(255, 255, 255); transform-origin: 127.87px 186.18px; transform: rotate(180deg);" class="animable"></rect></g><g id="el8b7c32w0xbl"><rect x="119.78" y="182.16" width="16.18" height="2.73" style="fill: rgb(0, 134, 199); transform-origin: 127.87px 183.525px; transform: rotate(180deg);" class="animable"></rect></g><g id="elgpf7i1zun6j"><rect x="121.59" y="193.45" width="15.53" height="13.54" style="fill: rgb(69, 90, 100); transform-origin: 129.355px 200.22px; transform: rotate(180deg);" class="animable"></rect></g><g id="el59wegp34d77"><path d="M135.06,293.22H175.5a0,0,0,0,1,0,0v33.43a5.5,5.5,0,0,1-5.5,5.5H140.56a5.5,5.5,0,0,1-5.5-5.5V293.22A0,0,0,0,1,135.06,293.22Z" style="fill: rgb(255, 255, 255); transform-origin: 155.28px 312.685px; transform: rotate(180deg);" class="animable"></path></g><g id="elhv811vbhpnu"><rect x="135.06" y="286.47" width="40.44" height="6.75" style="fill: rgb(38, 50, 56); transform-origin: 155.28px 289.845px; transform: rotate(180deg);" class="animable"></rect></g><g id="eln9ivu00nxj"><rect x="150.48" y="281.99" width="9.59" height="6.11" rx="2.22" style="fill: rgb(38, 50, 56); transform-origin: 155.275px 285.045px; transform: rotate(180deg);" class="animable"></rect></g><g id="eljp0pv1b1wnk"><rect x="137.25" y="305.59" width="36.05" height="18.02" style="fill: rgb(69, 90, 100); transform-origin: 155.275px 314.6px; transform: rotate(180deg);" class="animable"></rect></g><g id="elpjf2jn239rc"><path d="M92.71,293.22h40.44a0,0,0,0,1,0,0v33.43a5.5,5.5,0,0,1-5.5,5.5H98.21a5.5,5.5,0,0,1-5.5-5.5V293.22A0,0,0,0,1,92.71,293.22Z" style="fill: rgb(255, 255, 255); transform-origin: 112.93px 312.685px; transform: rotate(180deg);" class="animable"></path></g><g id="elxsezsqwpt2e"><rect x="92.71" y="286.47" width="40.44" height="6.75" style="fill: rgb(38, 50, 56); transform-origin: 112.93px 289.845px; transform: rotate(180deg);" class="animable"></rect></g><g id="elydai4fvjrsd"><rect x="108.14" y="281.99" width="9.59" height="6.11" rx="2.22" style="fill: rgb(38, 50, 56); transform-origin: 112.935px 285.045px; transform: rotate(180deg);" class="animable"></rect></g><g id="elcmzo59ugo9p"><rect x="94.91" y="305.59" width="36.05" height="18.02" style="fill: rgb(69, 90, 100); transform-origin: 112.935px 314.6px; transform: rotate(180deg);" class="animable"></rect></g><g id="elqgii4p5196"><path d="M177.32,293.22h40.44a0,0,0,0,1,0,0v33.43a5.5,5.5,0,0,1-5.5,5.5H182.82a5.5,5.5,0,0,1-5.5-5.5V293.22A0,0,0,0,1,177.32,293.22Z" style="fill: rgb(255, 255, 255); transform-origin: 197.54px 312.685px; transform: rotate(180deg);" class="animable"></path></g><g id="elaa26go4lqnu"><rect x="177.32" y="286.47" width="40.44" height="6.75" style="fill: rgb(38, 50, 56); transform-origin: 197.54px 289.845px; transform: rotate(180deg);" class="animable"></rect></g><g id="el0dp97yvew9ln"><rect x="192.75" y="281.99" width="9.59" height="6.11" rx="2.22" style="fill: rgb(38, 50, 56); transform-origin: 197.545px 285.045px; transform: rotate(180deg);" class="animable"></rect></g><g id="eltjcgn5rmww"><rect x="179.52" y="305.59" width="36.05" height="18.02" style="fill: rgb(69, 90, 100); transform-origin: 197.545px 314.6px; transform: rotate(180deg);" class="animable"></rect></g><g id="elqvmbvv9qvhe"><path d="M50.37,293.22H90.81a0,0,0,0,1,0,0v33.43a5.5,5.5,0,0,1-5.5,5.5H55.87a5.5,5.5,0,0,1-5.5-5.5V293.22A0,0,0,0,1,50.37,293.22Z" style="fill: rgb(255, 255, 255); transform-origin: 70.59px 312.685px; transform: rotate(180deg);" class="animable"></path></g><g id="elcg3sg7dzeiv"><rect x="50.37" y="286.47" width="40.44" height="6.75" style="fill: rgb(38, 50, 56); transform-origin: 70.59px 289.845px; transform: rotate(180deg);" class="animable"></rect></g><g id="elb3yprr5pqvl"><rect x="65.79" y="281.99" width="9.59" height="6.11" rx="2.22" style="fill: rgb(38, 50, 56); transform-origin: 70.585px 285.045px; transform: rotate(180deg);" class="animable"></rect></g><g id="elavvooymw4g4"><rect x="52.56" y="305.59" width="36.05" height="18.02" style="fill: rgb(69, 90, 100); transform-origin: 70.585px 314.6px; transform: rotate(180deg);" class="animable"></rect></g><g id="eltq0sn83dk1"><rect x="137.85" y="125.32" width="23.18" height="29.99" style="fill: rgb(255, 255, 255); transform-origin: 149.44px 140.315px; transform: rotate(180deg);" class="animable"></rect></g><polygon points="137.85 125.32 161.04 125.32 156.59 119.2 142.3 119.2 137.85 125.32" style="fill: rgb(255, 255, 255); transform-origin: 149.445px 122.26px;" id="elf5iylqtft1" class="animable"></polygon><g id="elbwno5ydw6m"><rect x="139.65" y="113.26" width="19.58" height="5.95" style="fill: rgb(69, 90, 100); transform-origin: 149.44px 116.235px; transform: rotate(180deg);" class="animable"></rect></g><g id="el721myesoy8r"><rect x="141.16" y="131.99" width="19.87" height="13.48" style="fill: rgb(0, 134, 199); transform-origin: 151.095px 138.73px; transform: rotate(180deg);" class="animable"></rect></g><g id="el5c5vccfqarc"><rect x="164.34" y="125.32" width="23.18" height="29.99" style="fill: rgb(255, 255, 255); transform-origin: 175.93px 140.315px; transform: rotate(180deg);" class="animable"></rect></g><polygon points="164.34 125.32 187.52 125.32 183.07 119.2 168.78 119.2 164.34 125.32" style="fill: rgb(255, 255, 255); transform-origin: 175.93px 122.26px;" id="elzgqru4j3exg" class="animable"></polygon><g id="el0xv4obkzsrg"><rect x="166.13" y="113.26" width="19.58" height="5.95" style="fill: rgb(69, 90, 100); transform-origin: 175.92px 116.235px; transform: rotate(180deg);" class="animable"></rect></g><g id="elf15ty0agwco"><rect x="167.64" y="131.99" width="19.87" height="13.48" style="fill: rgb(0, 134, 199); transform-origin: 177.575px 138.73px; transform: rotate(180deg);" class="animable"></rect></g><g id="el7jzkn5egxt"><rect x="190.82" y="125.32" width="23.18" height="29.99" style="fill: rgb(255, 255, 255); transform-origin: 202.41px 140.315px; transform: rotate(180deg);" class="animable"></rect></g><polygon points="190.82 125.32 214 125.32 209.55 119.2 195.26 119.2 190.82 125.32" style="fill: rgb(255, 255, 255); transform-origin: 202.41px 122.26px;" id="elmm6xj09pvrd" class="animable"></polygon><g id="elsp970b7sj8a"><rect x="192.61" y="113.26" width="19.58" height="5.95" style="fill: rgb(69, 90, 100); transform-origin: 202.4px 116.235px; transform: rotate(180deg);" class="animable"></rect></g><g id="elcfr6jckb5xc"><rect x="194.12" y="131.99" width="19.87" height="13.48" style="fill: rgb(0, 134, 199); transform-origin: 204.055px 138.73px; transform: rotate(180deg);" class="animable"></rect></g></g><g id="freepik--Floor--inject-65" class="animable" style="transform-origin: 250px 378.91px;"><polygon points="34 378.91 88 378.67 142 378.58 250 378.41 358 378.58 412 378.67 466 378.91 412 379.15 358 379.24 250 379.41 142 379.24 88 379.15 34 378.91" style="fill: rgb(38, 50, 56); transform-origin: 250px 378.91px;" id="elf5g9i2vl6id" class="animable"></polygon></g><g id="freepik--Character--inject-65" class="animable" style="transform-origin: 249.974px 267.638px;"><path d="M255.62,369.07s5.15,37.93,5.15,38c.1,7.25.31,13.61.72,16.89a.09.09,0,0,0,0,.05,4.94,4.94,0,0,0,.57,2.23.1.1,0,0,0,0,.05c2.18,1.43,60.17,2.38,62.21,1.73s.34-6.49-1.88-8.33-24.27-12.12-24.27-12.12l-5.52-37.91Z" style="fill: rgb(247, 169, 160); transform-origin: 290.403px 398.649px;" id="elvps4ql8wsi" class="animable"></path><path d="M260.85,411.69c.12,5.26.32,9.68.65,12.23a.07.07,0,0,0,0,.05,4.85,4.85,0,0,0,.56,2.23s0,0,0,.05c2.18,1.43,60.17,2.37,62.21,1.73s.34-6.49-1.88-8.32c-1.07-.88-6.67-3.69-12.22-6.38,1.76,1.38,3.53,3.08,2.72,3.77C311.52,418.26,276.35,417,260.85,411.69Z" style="fill: rgb(38, 50, 56); transform-origin: 293.018px 419.937px;" id="ell7q2s34kzi" class="animable"></path><path d="M307,411.69s-10.26-4.67-27.86,3.78" style="fill: rgb(38, 50, 56); transform-origin: 293.07px 412.936px;" id="el1p8dlo3dgeb" class="animable"></path><polygon points="259.16 395.21 296.26 394.4 272.06 204.77 233.8 204.77 259.16 395.21" style="fill: rgb(247, 169, 160); transform-origin: 265.03px 299.99px;" id="eln4gwhrc6qh8" class="animable"></polygon><path d="M237.75,369.63s-4.86,36.16-4.86,36.18c0,7.26-.21,13.62-.61,16.9a.09.09,0,0,1,0,.05,5.05,5.05,0,0,1-.54,2.24l0,0c-2.17,1.45-54,2.77-56,2.14s-.38-6.5,1.83-8.34,18-12.28,18-12.28l6.09-37.89Z" style="fill: rgb(247, 169, 160); transform-origin: 206.291px 397.966px;" id="eldx2pslnhxsg" class="animable"></path><path d="M175.69,427.18c2,.63,53.82-.69,56-2.13,0,0,0,0,0-.06a4.85,4.85,0,0,0,.56-2.23.13.13,0,0,0,0-.06,91.71,91.71,0,0,0,.54-11.47c-8.46,5.36-30.35,7.75-37.31,6.22-6.17-1.35-4.82-6.32-3.52-8.56-4.77,3.18-12.92,8.65-14.48,9.95C175.31,420.68,173.65,426.55,175.69,427.18Z" style="fill: rgb(38, 50, 56); transform-origin: 203.782px 418.116px;" id="el2rr4dn3yhpa" class="animable"></path><path d="M192,408.89s17.43-2.84,29.34,6.58" style="fill: rgb(38, 50, 56); transform-origin: 206.67px 411.979px;" id="elqup47mg7w1c" class="animable"></path><path d="M268.58,204.73a.16.16,0,0,1,0,0c-.15.7-2.55,11.82-5,21.37-1.81,7-3.67,13.11-4.73,13.74a25.94,25.94,0,0,1-4,2L234.39,394.68l-36.85-.82,19.53-164.7,4.62-24.43Z" style="fill: rgb(247, 169, 160); transform-origin: 233.06px 299.705px;" id="el6arb5saae0i" class="animable"></path><path d="M219.82,204.84H273l15.7,116.51s-25.44,6.47-41.07,6.31S204.22,319,204.22,319Z" style="fill: rgb(38, 50, 56); transform-origin: 246.46px 266.251px;" id="el4za3sqi91yo" class="animable"></path><path d="M274.48,154.29a.45.45,0,0,1-.41.41l-1.71-.16c-.9-4.48-2.06-8.11-1.82-6.73a23.15,23.15,0,0,1,.14,6.57c-.75-.07-2.49-.27-3.36-.36-.25-7.68-1.14-13.49-1.28-11.76-.57,7-1.27,9.11-2.05,11.4-8.13-.9-18.77-2.22-26.45-3.34-.29-4.27-.42-8.86-.6-8.57-1.38,2.16-2.15,5.5-2.55,8.1-2.44-.38-4.38-.73-5.56-1,0,0-.07-3.57,0-4.72a25.44,25.44,0,0,1,2.1-8.55,43.79,43.79,0,0,1,4.7-7.5l0-.05s0,0,0,0a25.27,25.27,0,0,0,2.81-5,.05.05,0,0,0,0,0,25.37,25.37,0,0,0,1.23-4c1.08-5,4.39-9,9.05-9.64,9.05-5.73,18.26,0,19.6,7v0c.44,3.09.67,7,1,10.1a0,0,0,0,0,0,0s0,0,0,0h0a31.81,31.81,0,0,0,.51,3.57C271.25,135.69,275.68,139.5,274.48,154.29Z" style="fill: rgb(38, 50, 56); transform-origin: 251.741px 130.874px;" id="elypwgt82wlfe" class="animable"></path><path d="M246.66,110.34a9.5,9.5,0,0,0-6.29,6.91,26.46,26.46,0,0,1-2.08,6.14,22.45,22.45,0,0,1-4.18,5,16.83,16.83,0,0,0-5.14,8.51,30.31,30.31,0,0,0-.66,11.71s0,0,0,0a32.17,32.17,0,0,1,1.34-12.1c1.22-3.93,3.72-6.13,6.34-8.84A17.35,17.35,0,0,0,240.4,120a21.27,21.27,0,0,1,1.67-5.34,10.4,10.4,0,0,1,4.75-3.89C247.06,110.63,246.9,110.25,246.66,110.34Z" style="fill: rgb(38, 50, 56); transform-origin: 237.479px 129.468px;" id="elaej1ky5ik3s" class="animable"></path><path d="M274,136.52c-1.65-3.22-3.45-6-4.14-9.81-.64-3.45-.77-7-1.43-10.44,0-.06-.08,0-.07,0,.89,6.07.39,12,3.18,17.41a39.69,39.69,0,0,1,3.85,9.09,30.5,30.5,0,0,1,.45,10.79c0,.13.14.15.17,0A25.18,25.18,0,0,0,274,136.52Z" style="fill: rgb(38, 50, 56); transform-origin: 272.517px 134.954px;" id="el6wzm9kp052" class="animable"></path><path d="M254.07,164c3,9.77,15.6,41.57,25.36,44.55,6.4,2,32.95,1.59,38-4.26,2.2-2.55.43-21.76-3.14-21.3s-24.92,1.49-27.45.52-20.11-25-26.91-31.12C248.2,141.76,252.44,158.73,254.07,164Z" style="fill: rgb(247, 169, 160); transform-origin: 285.184px 179.296px;" id="eldmpypx8ps1o" class="animable"></path><path d="M306.43,181l-1.8,28.49s-21.19,2.08-29.83-2.11c-10.49-5.09-22.45-40.89-24-46.72-2.51-9.57-.85-15,4.09-13,1.92.75,4.34,2.62,7.2,5.82S282,178,287.65,182.35C290.8,184.77,306.43,181,306.43,181Z" style="fill: rgb(235, 235, 235); transform-origin: 278.036px 178.627px;" id="elrqz4y48vpx9" class="animable"></path><path d="M299.44,207.8c.14-4.22,1.35-21.46,1.86-25.17,0-.25.21-.29.21,0-.12,12.65-1.55,21.06-1.9,25.19C299.6,207.9,299.44,207.91,299.44,207.8Z" style="fill: rgb(38, 50, 56); transform-origin: 300.475px 195.154px;" id="el9mpwsb9y4tm" class="animable"></path><path d="M295.69,209.93c-6.85.14-15.94-.2-20.89-2.6-10.49-5.09-22.45-40.89-24-46.72-2.51-9.57-.85-15,4.09-13l.46.2Z" style="fill: rgb(38, 50, 56); transform-origin: 272.666px 178.577px;" id="el2rwxrgvkcs" class="animable"></path><path d="M271.56,189.3l4.19,28.79s-46.92.69-58.57-.13c0,0,9.5-53.82,22-67.42,6.26-6.8,13.61-6.29,18.3-1.53,1.19,1.2,15.34,19.9,16.83,27.05C275.64,182.36,271.56,189.3,271.56,189.3Z" style="fill: rgb(0, 134, 199); transform-origin: 246.465px 181.897px;" id="elyy4mkujujl" class="animable"></path><path d="M244.4,146.56s8.82,20.06,9.35,36.33c1.42,43.64-4.68,115.68-6.79,120.87-2.9,7.12-46.51,14.2-46.51,14.2s12.8-107.42,24.41-140C235.62,147.71,244.4,146.56,244.4,146.56Z" style="fill: rgb(235, 235, 235); transform-origin: 227.206px 232.26px;" id="el10p789wh692b" class="animable"></path><path d="M215,248.33c-.2,6.41.09,13.67,1.46,15,2.56,2.5,9.36,2.29,11.5,2.28s9.76,0,11.55-4c.79-1.73,1-10.69,1-13.86,0-1.29-.3-7.62-.4-8.33,0-.16-.47-.15-.49,0-.11.73,0,3.36-.08,3.86-12.27,1.57-19.87.26-23.81-.5,0-1.19,0-2.11,0-3.29a67.24,67.24,0,0,0,11.63,1.1,126.56,126.56,0,0,0,12.75-.91c.1,0,0-.48-.12-.48-1.6,0-7.15.57-12.73.57a104.1,104.1,0,0,1-11.94-.93C215.08,238.89,215.07,245.25,215,248.33Zm2.2,14.27c-1.35-1.55-1.52-6-1.52-8.71,0-3.69,0-6.64,0-10.33a63.1,63.1,0,0,0,23.79.32c0,.16.08,7.94,0,10.42-.09,3.17-.19,6-1.41,7.68-1,1.41-4,2.83-10.74,2.82C222.44,264.79,218.32,263.9,217.18,262.6Z" style="fill: rgb(166, 166, 166); transform-origin: 227.727px 252.229px;" id="eld2g9stnsvpq" class="animable"></path><path d="M273.16,304.42C275.57,310.14,290,314,290,314L271.82,188.77a18.71,18.71,0,0,0,2.54-12.59c-1.22-7-15.93-27.4-18.31-28.45a227.14,227.14,0,0,1,5.1,31.94C265.23,223.69,270.52,298.2,273.16,304.42Z" style="fill: rgb(235, 235, 235); transform-origin: 273.025px 230.865px;" id="elmr88hgwp0zi" class="animable"></path><path d="M269.72,166.67c-1.31-2.09-2.65-4.16-3.94-6.26,0-.06.06-.13.1-.07,1.31,1.72,2.59,3.47,3.86,5.22-.42-.94-.83-1.88-1.21-2.84,0-.11.11-.2.17-.09.58,1.23,1.11,2.49,1.62,3.75a36.24,36.24,0,0,1,3,5A17.26,17.26,0,0,1,274.91,183a15.43,15.43,0,0,1-1.17,3.21c-.35.69-1.48,2.2-1.47,2.24.74,4.1,1.29,8.25,1.87,12.38s1.18,8.36,1.66,12.55c.28,2.37.46,4.77.8,7.13,0,.09-.12.12-.13,0-.3-2.06-.75-4.1-1.12-6.15s-.71-4.1-1-6.16c-.67-4.16-1.26-8.33-1.86-12.5-.34-2.36-.72-4.71-1-7.08a21.84,21.84,0,0,1,1.36-2.59,17,17,0,0,0,1-2.71,15.29,15.29,0,0,0,.49-5.83C273.88,173.57,271.82,170,269.72,166.67Z" style="fill: rgb(38, 50, 56); transform-origin: 271.19px 190.453px;" id="elt2teswauir" class="animable"></path><path d="M256.16,148.19q1.45,1.94,2.95,3.84c1,1.26,2,2.54,3,3.8l0-.3-2.47,2.27-.2.19.22.18c1,.89,2.09,1.75,3.14,2.62l-.09-.22c-.38,2.35-.79,4.7-1.13,7.06s-.7,4.72-1,7.08q.75-3.51,1.41-7c.47-2.35.87-4.7,1.29-7.05l0-.13-.11-.09c-1-.88-2.08-1.77-3.13-2.63v.37l2.42-2.31.15-.14-.13-.16c-1-1.25-2.11-2.47-3.17-3.7S257.26,149.4,256.16,148.19Z" style="fill: rgb(219, 219, 219); transform-origin: 259.72px 161.45px;" id="el7arqddgg3bb" class="animable"></path><path d="M245.35,146.67c.25.92,3,7.15,7.18,7.6,2.64.28,3-8.84,3-8.84l.1-.56L257,137l-9.34-5.51-1.35-.72s-.25,2.17-.54,4.87c0,.12,0,.25,0,.38l-.06.44c-.05.4-.09.82-.13,1.23s-.06.61-.09.94-.05.66-.08,1A52,52,0,0,0,245.35,146.67Z" style="fill: rgb(247, 169, 160); transform-origin: 251.129px 142.523px;" id="el3wn55u1utae" class="animable"></path><path d="M245.81,135.68a16,16,0,0,0,9.78,9.19L257,137l-9.34-5.51-1.35-.72S246.1,133,245.81,135.68Z" style="fill: rgb(38, 50, 56); transform-origin: 251.405px 137.82px;" id="eljewj4tmz63q" class="animable"></path><path d="M267.94,127.7c-1.52,13.89-10,14.54-13,14.21-2.71-.3-11.93-1.68-11.85-15.65s7-17.65,13.28-17.29S269.47,113.81,267.94,127.7Z" style="fill: rgb(247, 169, 160); transform-origin: 255.624px 125.457px;" id="el2gag5nd2dut" class="animable"></path><path d="M265.4,124.34a8.83,8.83,0,0,1-.9-.35,1.55,1.55,0,0,1-.85-.53.49.49,0,0,1,.1-.6,1.24,1.24,0,0,1,1.25-.09,1.86,1.86,0,0,1,1,.82A.53.53,0,0,1,265.4,124.34Z" style="fill: rgb(38, 50, 56); transform-origin: 264.822px 123.499px;" id="eldrkz7b8jye" class="animable"></path><path d="M255.94,122.78a7.71,7.71,0,0,0,1,0,1.59,1.59,0,0,0,1-.23.52.52,0,0,0,.1-.6,1.23,1.23,0,0,0-1.15-.48,1.77,1.77,0,0,0-1.23.44A.53.53,0,0,0,255.94,122.78Z" style="fill: rgb(38, 50, 56); transform-origin: 256.81px 122.127px;" id="elh1eln1eqrn" class="animable"></path><path d="M257.33,126.59s-.08,0-.09.07c-.1,1-.38,2-1.28,2.2,0,0,0,.06,0,.06C257,128.92,257.38,127.5,257.33,126.59Z" style="fill: rgb(38, 50, 56); transform-origin: 256.647px 127.755px;" id="elajkioxedbit" class="animable"></path><path d="M256.63,125.49c-1.5-.34-2,2.69-.66,3S257.88,125.76,256.63,125.49Z" style="fill: rgb(38, 50, 56); transform-origin: 256.258px 126.988px;" id="el0w5qg76mvpaj" class="animable"></path><path d="M256,125.54c-.3.12-.61.37-.94.35s-.59-.4-.78-.75c0,0,0,0,0,0a1.11,1.11,0,0,0,.6,1.41c.55.18,1-.26,1.3-.81C256.19,125.66,256.12,125.49,256,125.54Z" style="fill: rgb(38, 50, 56); transform-origin: 255.195px 125.865px;" id="elgvhv1gv8g7p" class="animable"></path><path d="M263,127.47s.06.06.05.1c-.21.93-.29,2,.5,2.5,0,0,0,.06,0,.05C262.54,129.78,262.66,128.32,263,127.47Z" style="fill: rgb(38, 50, 56); transform-origin: 263.153px 128.796px;" id="elb2acu5m13hs" class="animable"></path><path d="M264,126.66c1.52.17,1.06,3.21-.35,3.05S262.75,126.51,264,126.66Z" style="fill: rgb(38, 50, 56); transform-origin: 263.873px 128.185px;" id="el6xndbpwikwg" class="animable"></path><path d="M264.63,127c.22.2.41.53.69.59s.63-.22.89-.5c0,0,0,0,0,0-.07.58-.36,1.15-.93,1.18s-.82-.53-.87-1.13C264.44,127,264.54,126.87,264.63,127Z" style="fill: rgb(38, 50, 56); transform-origin: 265.31px 127.609px;" id="elypz2moew53" class="animable"></path><path d="M256.56,134.16c.18.26.33.61.66.72a2.65,2.65,0,0,0,1,0,0,0,0,0,1,0,.05,1.31,1.31,0,0,1-1.3.24,1,1,0,0,1-.54-1C256.46,134.12,256.54,134.12,256.56,134.16Z" style="fill: rgb(38, 50, 56); transform-origin: 257.297px 134.689px;" id="elxo9tn8ngq6m" class="animable"></path><path d="M261.06,131.44a20,20,0,0,1-.16,2.09c0,.06-.17.06-.4,0h0a3.19,3.19,0,0,1-2.85-1.7c0-.07.06-.12.11-.07a4.83,4.83,0,0,0,2.73,1.31c.08-.18,0-2.46.1-2.45a5.6,5.6,0,0,1,1.44.6c.18-3-.12-6,.11-8.94,0-.11.17-.11.18,0a48.63,48.63,0,0,1,.29,9.64C262.58,132.32,261.31,131.59,261.06,131.44Z" style="fill: rgb(38, 50, 56); transform-origin: 260.188px 127.886px;" id="elqh8qwttohdr" class="animable"></path><path d="M260.12,133.14a3.41,3.41,0,0,1-1.5.88,1.53,1.53,0,0,1-.94-.06c-.65-.26-.58-.88-.39-1.39a3.29,3.29,0,0,1,.4-.77A4.49,4.49,0,0,0,260.12,133.14Z" style="fill: rgb(38, 50, 56); transform-origin: 258.639px 132.934px;" id="eln8tadx6609i" class="animable"></path><path d="M258.62,134a1.53,1.53,0,0,1-.94-.06c-.65-.26-.58-.88-.39-1.39A1.58,1.58,0,0,1,258.62,134Z" style="fill: rgb(255, 156, 189); transform-origin: 257.889px 133.299px;" id="elgprcp30rwnj" class="animable"></path><path d="M268.13,122.72c-1.71.19-6.7-4.54-7.95-10.13a13.08,13.08,0,0,1-5.63,6.91,13.46,13.46,0,0,1-8,2.22s-2.38,5.94-3.42,5.86S240,105.1,258,108.55c0,0,5.35.55,8,4.28S268.13,122.72,268.13,122.72Z" style="fill: rgb(38, 50, 56); transform-origin: 255.322px 117.885px;" id="elgyi0x4366wm" class="animable"></path><path d="M254.27,131.24a4.52,4.52,0,1,1,5.81-4.16h0a4.54,4.54,0,0,1-4.7,4.35A4.45,4.45,0,0,1,254.27,131.24Zm2.4-8.09a3.71,3.71,0,0,0-1-.16,3.92,3.92,0,1,0,1,.16Z" style="fill: rgb(55, 71, 79); transform-origin: 255.563px 126.911px;" id="eldmv4eanf5o" class="animable"></path><path d="M264.51,133c-1.66-.49-2.66-2.63-2.26-5a5.46,5.46,0,0,1,1.48-3,2.82,2.82,0,0,1,4.76.82,5.45,5.45,0,0,1,.4,3.28c-.43,2.46-2.26,4.2-4.09,3.88A1.37,1.37,0,0,1,264.51,133Zm1.95-8.19a1.41,1.41,0,0,0-.22-.06,2.4,2.4,0,0,0-2.08.77,4.71,4.71,0,0,0-1.31,2.62c-.37,2.13.54,4.08,2,4.34s3-1.26,3.39-3.39a4.79,4.79,0,0,0-.34-2.91A2.48,2.48,0,0,0,266.46,124.77Z" style="fill: rgb(55, 71, 79); transform-origin: 265.573px 128.521px;" id="elpilj0ii6hrp" class="animable"></path><path d="M259.84,127.57l-.3-.52c.77-.45,2.47-.94,3.35.41l-.5.33C261.59,126.58,259.91,127.53,259.84,127.57Z" style="fill: rgb(55, 71, 79); transform-origin: 261.215px 127.185px;" id="elm1p7994wfb" class="animable"></path><path d="M239.78,125.28l-.48-.37c.17-.22,1.7-2.19,3.07-2.18s9.14,2.15,9.47,2.24l-.16.59c-2.25-.62-8.33-2.21-9.32-2.22S240.19,124.73,239.78,125.28Z" style="fill: rgb(55, 71, 79); transform-origin: 245.57px 124.145px;" id="elsi4chjed3x" class="animable"></path><path d="M245.45,126.23s-2.14-4.87-4.29-4.19-1.14,7.32,1,8.63a2.36,2.36,0,0,0,3.35-.63Z" style="fill: rgb(247, 169, 160); transform-origin: 242.738px 126.543px;" id="elqdhoomt9rhn" class="animable"></path><path d="M241.5,123.94a0,0,0,1,0,0,0,6,6,0,0,1,2.3,4.27,1.3,1.3,0,0,0-1.84-.73c-.05,0,0,.09,0,.09a1.46,1.46,0,0,1,1.47.81,7.26,7.26,0,0,1,.5,1.42c.05.16.32.13.3,0v0C244.66,127.74,243.64,124.58,241.5,123.94Z" style="fill: rgb(38, 50, 56); transform-origin: 242.913px 126.925px;" id="eln1o0b8we7h" class="animable"></path><path d="M253.87,166s-3.38-4.45-.16-6.5,5.84,2.88,5.84,2.88Z" style="fill: rgb(69, 90, 100); transform-origin: 255.935px 162.501px;" id="elbvkygv3005t" class="animable"></path><path d="M280.58,195.27h0l.46,5.45.17,1.8-1.57-.89-4.75-2.73h0l-21.13-33.12,5.68-3.63,21.14,33.13Z" style="fill: rgb(69, 90, 100); transform-origin: 267.485px 182.335px;" id="elye67vhi0r7k" class="animable"></path><polygon points="281.05 200.72 281.21 202.52 279.63 201.63 281.05 200.72" style="fill: rgb(55, 71, 79); transform-origin: 280.42px 201.62px;" id="el0db4kx1qk0zp" class="animable"></polygon><g id="el8494yhdf92h"><rect x="252.96" y="163.65" width="7.87" height="1.56" style="fill: rgb(38, 50, 56); transform-origin: 256.895px 164.43px; transform: rotate(-32.54deg);" class="animable"></rect></g><g id="el51nj5bl9bur"><rect x="253.89" y="165.11" width="7.87" height="1.56" style="fill: rgb(38, 50, 56); transform-origin: 257.825px 165.89px; transform: rotate(-32.54deg);" class="animable"></rect></g><polygon points="254.93 168.67 257.07 167.3 263.54 180.04 262.72 180.5 254.93 168.67" style="fill: rgb(38, 50, 56); transform-origin: 259.235px 173.9px;" id="elzq8qikh8ts" class="animable"></polygon><path d="M232.54,156c-16.54,17.52-35.41,47.24-27.74,53.83,7,6,33.13,1,49.62-5.07,3.14-1.15-8.91-28.95-12.12-27.38a89.16,89.16,0,0,1-10.45,4.44c-.9.23,3.74-10.39,9.43-23.26C247.62,144.2,242,146,232.54,156Z" style="fill: rgb(247, 169, 160); transform-origin: 228.988px 180.34px;" id="elrthfx0of0r8" class="animable"></path><path d="M282.09,176.16c0,3.2-7.93,2.41-7.93,2.41a5.93,5.93,0,0,1,2.34,3.27c.54,2.37-2.94,4.27-2.94,4.27a7.31,7.31,0,0,1,1.92,3.84c.29,2.32-3,4.73-3,4.73a6.4,6.4,0,0,1-.44,4.44c-1.95,3.61-8.27,3.55-12.18,4.28A83.22,83.22,0,0,0,247,207.21L240.4,178.3s17.12-9.68,21.84-9.36C266.21,169.22,282.17,171.27,282.09,176.16Z" style="fill: rgb(247, 169, 160); transform-origin: 261.245px 188.071px;" id="elq443hqvlyja" class="animable"></path><path d="M274.1,178.48a53.33,53.33,0,0,0-12.93-1.86c-.1,0-.1.14,0,.15,4.29.19,8.63,1.54,12.9,1.91A.1.1,0,0,0,274.1,178.48Z" style="fill: rgb(38, 50, 56); transform-origin: 267.641px 177.651px;" id="elw2sgibxq45p" class="animable"></path><path d="M273.45,185.78a11.28,11.28,0,0,0-3-.23q-1.58,0-3.15,0c-2.11,0-4.22.15-6.32.32-.09,0-.1.15,0,.15,2.1-.05,4.2-.07,6.3,0l3.16.08a13.41,13.41,0,0,0,3,0A.15.15,0,0,0,273.45,185.78Z" style="fill: rgb(38, 50, 56); transform-origin: 267.257px 185.858px;" id="elu1rcqtyg4d" class="animable"></path><path d="M272.44,194.68a8,8,0,0,0-2.67-.06l-2.88.12c-1.92.06-3.84.13-5.76.13-.1,0-.1.15,0,.15,1.95,0,3.9,0,5.86,0l2.87,0a7.34,7.34,0,0,0,2.6-.25A.06.06,0,0,0,272.44,194.68Z" style="fill: rgb(38, 50, 56); transform-origin: 266.764px 194.791px;" id="elfe5owftzldh" class="animable"></path><path d="M240.67,148.31c-11.85,6.79-43.08,48-38,59.77s43,.21,43,.21l-2.3-31.61s-10,5.23-10.34,4.72,5.89-14.71,8.42-20.49S247,144.69,240.67,148.31Z" style="fill: rgb(235, 235, 235); transform-origin: 223.893px 180.465px;" id="elka0v4mxksur" class="animable"></path><path d="M241,206.36c-.56-4.19-2.22-21.39-2.33-25.13,0-.26.15-.33.2-.06,2,12.5,2,21,2.29,25.16C241.19,206.43,241,206.46,241,206.36Z" style="fill: rgb(38, 50, 56); transform-origin: 239.917px 193.71px;" id="elf0yt9juk1b" class="animable"></path><path d="M243.18,176.71a22.14,22.14,0,0,0-3.22,1.35c-.94.43-1.88.87-2.81,1.32-2,1-4,2-6,3s-4,2.09-6,3.17-3.87,2.28-5.84,3.37c-.09.05,0,.18.08.13,2-1,4.07-2,6.1-3l5.95-2.95c2-1,4-2,5.95-2.94l2.9-1.46a23.85,23.85,0,0,0,3.07-1.65A.22.22,0,0,0,243.18,176.71Z" style="fill: rgb(38, 50, 56); transform-origin: 231.334px 182.886px;" id="elk1jqzyryu0m" class="animable"></path><path d="M240.16,167.55c-.63.76-1.25,1.51-1.84,2.3-.11.14-.21.29-.31.44l.5-1.22a40.07,40.07,0,0,0,1.7-4.33c0-.06-.08-.1-.11,0a44,44,0,0,0-2.12,4.37c-.66,1.43-1.33,2.86-2,4.3s-1.29,2.88-1.9,4.34a32.74,32.74,0,0,0-1.64,4.36c0,.09.1.12.15.05a34.32,34.32,0,0,0,2.17-4.33c.65-1.44,1.27-2.89,1.9-4.34l.77-1.83.31-.41c.3-.37.58-.76.85-1.15.55-.81,1.07-1.64,1.59-2.48C240.22,167.56,240.18,167.53,240.16,167.55Z" style="fill: rgb(38, 50, 56); transform-origin: 236.325px 173.439px;" id="elpmhnp0mx6d" class="animable"></path><path d="M245.8,207.6c0-.21-.12-.25-.17,0s0,.35-.07.47c-1.29.3-6,1.58-7.14,1.88q-3.63.95-7.3,1.64c-2.46.46-4.92.84-7.41,1.15s-5,.63-7.45.71a.08.08,0,0,0,0,.16c2.54-.05,5.06-.05,7.59-.25s5-.54,7.39-1,5-1,7.41-1.66c1.23-.33,2.44-.69,3.65-1.07a18.83,18.83,0,0,0,3.41-1.25.26.26,0,0,0,.12-.23Z" style="fill: rgb(38, 50, 56); transform-origin: 231.005px 210.519px;" id="elmq5s8xuutdg" class="animable"></path><path d="M251,172.82l-.84.4-6.77-9.17-.15-.2.1-.22,2.49-5.37-7-.34-.35,0,.13-.31c1.44-3.43,2.84-6.88,4.3-10.3-1.22,3.4-2.49,6.77-3.73,10.15l7.21.18h.5l-.21.46-2.45,5.65Z" style="fill: rgb(219, 219, 219); transform-origin: 244.74px 160.265px;" id="el72dr9m0thpj" class="animable"></path><path d="M238.77,157.43h.33l-.12.32Z" style="fill: rgb(219, 219, 219); transform-origin: 238.935px 157.59px;" id="elyvpwszpmbq" class="animable"></path><polygon points="244.01 163.55 244.15 163.74 244.06 163.97 244.01 163.55" style="fill: rgb(219, 219, 219); transform-origin: 244.08px 163.76px;" id="ely75ognszmf" class="animable"></polygon><polygon points="245.99 157.81 246.29 158.29 245.78 158.26 245.99 157.81" style="fill: rgb(219, 219, 219); transform-origin: 246.035px 158.05px;" id="elr3brtlmmvjj" class="animable"></polygon><polygon points="297.92 211.81 264.79 209.77 282.88 168.22 316.01 170.26 297.92 211.81" style="fill: rgb(255, 255, 255); transform-origin: 290.4px 190.015px;" id="elh0lhb3htixc" class="animable"></polygon><polygon points="300.19 211.95 267.06 209.91 285.15 168.36 318.28 170.4 300.19 211.95" style="fill: rgb(69, 90, 100); transform-origin: 292.67px 190.155px;" id="elx7td8397mm" class="animable"></polygon><path d="M288.67,168.58a3,3,0,0,1-1.53,1.64c-.33.15-.39-.27-.06-.41a2.17,2.17,0,0,0,1-1c0-.08.07-.16.1-.23a1.66,1.66,0,0,0,.1-.81.56.56,0,0,0-.17-.3s0,0,0,0l0,0-.06,0a.49.49,0,0,0-.24,0,.85.85,0,0,0-.39.22,3.49,3.49,0,0,0-.52.66l0,0a.25.25,0,0,0,0,.08s0,0,0,.06l-.47,0a3.32,3.32,0,0,1,.49-.79,1.84,1.84,0,0,1,1.33-.73.74.74,0,0,1,.7.72A2,2,0,0,1,288.67,168.58Z" style="fill: rgb(0, 134, 199); transform-origin: 287.69px 168.611px;" id="eliw7vpkred5" class="animable"></path><path d="M291.26,168.74a2.94,2.94,0,0,1-1.53,1.64c-.32.15-.38-.27-.06-.41a2.23,2.23,0,0,0,1-1c0-.08.07-.16.09-.23a1.66,1.66,0,0,0,.1-.81.51.51,0,0,0-.17-.3l0,0,0,0-.06,0a.45.45,0,0,0-.23,0,.89.89,0,0,0-.4.22,2,2,0,0,0-.36.42c-.06.07-.1.16-.16.24l0,0a.56.56,0,0,1-.05.08s0,0,0,.06l-.47,0a3.08,3.08,0,0,1,.5-.79,1.8,1.8,0,0,1,1.32-.73.73.73,0,0,1,.7.72A1.92,1.92,0,0,1,291.26,168.74Z" style="fill: rgb(0, 134, 199); transform-origin: 290.22px 168.771px;" id="elnoy9j9zsmg" class="animable"></path><path d="M293.85,168.9a2.92,2.92,0,0,1-1.52,1.64c-.33.15-.39-.27-.07-.41a2.23,2.23,0,0,0,1-1c0-.08.07-.16.09-.23a1.55,1.55,0,0,0,.1-.81.51.51,0,0,0-.17-.3l0,0,0,0-.07,0a.46.46,0,0,0-.23,0,.94.94,0,0,0-.4.22,2.3,2.3,0,0,0-.35.42,2,2,0,0,0-.16.24l0,0a.59.59,0,0,0,0,.08s0,0,0,.06l-.47,0a3.37,3.37,0,0,1,.5-.79,1.82,1.82,0,0,1,1.32-.73.73.73,0,0,1,.7.72A1.92,1.92,0,0,1,293.85,168.9Z" style="fill: rgb(0, 134, 199); transform-origin: 292.86px 168.931px;" id="elz1ak8iaqk7c" class="animable"></path><path d="M296.45,169.06a3,3,0,0,1-1.53,1.64c-.33.15-.39-.27-.06-.41a2.17,2.17,0,0,0,1-1c0-.08.07-.16.1-.23a1.66,1.66,0,0,0,.1-.81.56.56,0,0,0-.17-.3l0,0,0,0-.06,0a.49.49,0,0,0-.24,0,.85.85,0,0,0-.39.22,3.49,3.49,0,0,0-.52.66l0,.05a.25.25,0,0,0-.05.08s0,0,0,.06l-.47,0a3.32,3.32,0,0,1,.49-.79,1.84,1.84,0,0,1,1.33-.73.74.74,0,0,1,.7.72A2,2,0,0,1,296.45,169.06Z" style="fill: rgb(0, 134, 199); transform-origin: 295.42px 169.116px;" id="elqns54i9bj0c" class="animable"></path><path d="M299,169.22a2.94,2.94,0,0,1-1.53,1.64c-.32.15-.38-.27-.06-.41a2.23,2.23,0,0,0,1-1c0-.08.07-.16.09-.23a1.55,1.55,0,0,0,.1-.81.51.51,0,0,0-.17-.3l0,0,0,0-.06,0a.45.45,0,0,0-.23,0,.89.89,0,0,0-.4.22,2,2,0,0,0-.36.42c-.06.07-.1.16-.16.24l0,.05a.56.56,0,0,1,0,.08s0,0,0,.06l-.47,0a3.08,3.08,0,0,1,.5-.79,1.8,1.8,0,0,1,1.32-.73.73.73,0,0,1,.7.72A1.92,1.92,0,0,1,299,169.22Z" style="fill: rgb(0, 134, 199); transform-origin: 298.01px 169.276px;" id="el0ggjik4n9yem" class="animable"></path><path d="M301.63,169.38a2.92,2.92,0,0,1-1.52,1.64c-.33.15-.39-.27-.07-.41a2.23,2.23,0,0,0,1-1c0-.08.07-.16.09-.23a1.55,1.55,0,0,0,.1-.81.51.51,0,0,0-.17-.3l0,0s0,0,0,0l-.07,0a.46.46,0,0,0-.23,0,.94.94,0,0,0-.4.22,2.3,2.3,0,0,0-.35.42,1.43,1.43,0,0,0-.16.24l0,.05a.59.59,0,0,0,0,.08s0,0,0,.06l-.47,0a3.37,3.37,0,0,1,.5-.79,1.82,1.82,0,0,1,1.32-.73.73.73,0,0,1,.7.72A1.92,1.92,0,0,1,301.63,169.38Z" style="fill: rgb(0, 134, 199); transform-origin: 300.64px 169.436px;" id="els7k15rinu2" class="animable"></path><path d="M304.23,169.54a3,3,0,0,1-1.53,1.64c-.33.15-.39-.27-.06-.41a2.17,2.17,0,0,0,1-1c0-.08.07-.16.1-.23a1.66,1.66,0,0,0,.1-.81.56.56,0,0,0-.17-.3l0,0,0,0-.06,0a.4.4,0,0,0-.24,0,.85.85,0,0,0-.39.22,2,2,0,0,0-.36.42,1.43,1.43,0,0,0-.16.24l0,.05a.25.25,0,0,0,0,.08s0,0,0,.06l-.47,0a3.32,3.32,0,0,1,.49-.79,1.84,1.84,0,0,1,1.33-.73.74.74,0,0,1,.7.72A2,2,0,0,1,304.23,169.54Z" style="fill: rgb(0, 134, 199); transform-origin: 303.25px 169.596px;" id="elbvptbwvie3j" class="animable"></path><path d="M306.82,169.7a2.94,2.94,0,0,1-1.53,1.64c-.32.15-.38-.27-.06-.41a2.23,2.23,0,0,0,1-1c0-.08.07-.16.09-.23a1.55,1.55,0,0,0,.1-.81.51.51,0,0,0-.17-.3l0,0,0,0-.06,0a.36.36,0,0,0-.23,0,.89.89,0,0,0-.4.22,2,2,0,0,0-.36.42,2.5,2.5,0,0,0-.16.24l0,.05a.56.56,0,0,1-.05.08s0,0,0,.06l-.47,0a3.37,3.37,0,0,1,.5-.79,1.8,1.8,0,0,1,1.32-.73.73.73,0,0,1,.7.72A1.92,1.92,0,0,1,306.82,169.7Z" style="fill: rgb(0, 134, 199); transform-origin: 305.78px 169.756px;" id="elrs3xcvkat" class="animable"></path><path d="M309.41,169.86a2.92,2.92,0,0,1-1.52,1.64c-.33.15-.39-.27-.07-.41a2.23,2.23,0,0,0,1-1c0-.08.07-.16.09-.23a1.55,1.55,0,0,0,.1-.81.51.51,0,0,0-.17-.3l0,0,0,0-.07,0a.37.37,0,0,0-.23,0,.94.94,0,0,0-.4.22,2.3,2.3,0,0,0-.35.42,1.43,1.43,0,0,0-.16.24l0,0,0,.08s0,0,0,.06l-.47,0a3.37,3.37,0,0,1,.5-.79,1.82,1.82,0,0,1,1.32-.73.73.73,0,0,1,.7.72A1.92,1.92,0,0,1,309.41,169.86Z" style="fill: rgb(0, 134, 199); transform-origin: 308.42px 169.891px;" id="elux9y5ykgl4e" class="animable"></path><path d="M312,170a3,3,0,0,1-1.53,1.64c-.33.15-.39-.27-.06-.41a2.17,2.17,0,0,0,1-1c0-.08.07-.16.1-.23a1.66,1.66,0,0,0,.1-.81.56.56,0,0,0-.17-.3l0,0,0,0-.06,0a.4.4,0,0,0-.24,0,.85.85,0,0,0-.39.22,2,2,0,0,0-.36.42,1.43,1.43,0,0,0-.16.24l0,0a.25.25,0,0,0-.05.08s0,0,0,.06l-.47,0a3.32,3.32,0,0,1,.49-.79,1.84,1.84,0,0,1,1.33-.73.74.74,0,0,1,.7.72A2,2,0,0,1,312,170Z" style="fill: rgb(0, 134, 199); transform-origin: 310.97px 170.031px;" id="elgyer4tf7lju" class="animable"></path><path d="M314.6,170.18a2.94,2.94,0,0,1-1.53,1.64c-.32.15-.38-.27-.06-.41a2.23,2.23,0,0,0,1-1c0-.08.07-.16.09-.23a1.55,1.55,0,0,0,.1-.81.51.51,0,0,0-.17-.3l0,0,0,0-.06,0a.36.36,0,0,0-.23,0,.89.89,0,0,0-.4.22,2,2,0,0,0-.36.42,2.5,2.5,0,0,0-.16.24l0,0a.56.56,0,0,1,0,.08s0,0,0,.06l-.47,0a3.37,3.37,0,0,1,.5-.79,1.8,1.8,0,0,1,1.32-.73.73.73,0,0,1,.7.72A1.92,1.92,0,0,1,314.6,170.18Z" style="fill: rgb(0, 134, 199); transform-origin: 313.61px 170.211px;" id="el9tjlrl76ydo" class="animable"></path><path d="M317.19,170.34a2.92,2.92,0,0,1-1.52,1.64c-.33.15-.39-.27-.07-.41a2.23,2.23,0,0,0,1-1c0-.08.07-.16.09-.23a1.55,1.55,0,0,0,.1-.81.51.51,0,0,0-.17-.3l0,0,0,0-.07,0a.37.37,0,0,0-.23,0,.94.94,0,0,0-.4.22,2.3,2.3,0,0,0-.35.42,1.43,1.43,0,0,0-.16.24l0,.05a.59.59,0,0,0,0,.08s0,0,0,.06l-.47,0a3.37,3.37,0,0,1,.5-.79,1.82,1.82,0,0,1,1.32-.73.73.73,0,0,1,.7.72A1.92,1.92,0,0,1,317.19,170.34Z" style="fill: rgb(0, 134, 199); transform-origin: 316.2px 170.396px;" id="elhz54ljmt9rs" class="animable"></path><path d="M315.36,179.9c1.25,3.78,5,8.75,5,11.72A3.39,3.39,0,0,1,318,195s2.74,1.81,2.29,4.5c-.24,1.39-2.65,2.23-2.65,2.23a4.06,4.06,0,0,1,1.58,3.92c-.44,1.89-2.79,2.45-2.79,2.45s1.35,2.44.29,4.22c-2.16,3.6-18.65,1.57-20.45-4.82-.84-3,3.16-2.26,3.16-2.26s-5.51-2.42-5.18-5.83,5.48-2.17,5.48-2.17-5.32-2.39-4.62-5.89c.73-3.65,5.66-1.52,5.66-1.52s-3.36-2.94-2.21-5.5c1.9-4.22,8.17,2.15,11.9,1.74l2.73-5.73Z" style="fill: rgb(247, 169, 160); transform-origin: 307.3px 196.995px;" id="ele1yen1mqhcm" class="animable"></path><path d="M318,185.5c-.88-3.69,4-7.51,3.7-11.16-.45-4.93-6.44-.89-8.51,5.95l-.66,5.58Z" style="fill: rgb(247, 169, 160); transform-origin: 317.122px 179.014px;" id="elm2e8agullfo" class="animable"></path><path d="M316.09,208.19a0,0,0,0,1,0,.09,28.87,28.87,0,0,1-16.86-3.1c-.17-.09-.09-.4.11-.33A58.78,58.78,0,0,0,316.09,208.19Z" style="fill: rgb(38, 50, 56); transform-origin: 307.614px 206.663px;" id="elhx2r0ytnkrg" class="animable"></path><path d="M317.73,201.73c.07,0,.07.11,0,.12a27,27,0,0,1-18.19-4.53c-.19-.14-.22-.44,0-.3C303.27,199.32,312.37,201.53,317.73,201.73Z" style="fill: rgb(38, 50, 56); transform-origin: 308.584px 199.499px;" id="el6xteq92sqn" class="animable"></path><path d="M300.49,189.37c5.25,3.51,11.08,5,17.3,5.62.08,0,.06.12,0,.13-3.13.52-7-.31-10-1.21a16.62,16.62,0,0,1-7.37-4.35C300.29,189.48,300.38,189.3,300.49,189.37Z" style="fill: rgb(38, 50, 56); transform-origin: 309.099px 192.318px;" id="el7pyl742rbkl" class="animable"></path></g><g id="freepik--Counter--inject-65" class="animable" style="transform-origin: 250.005px 343.385px;"><rect x="58.34" y="250" width="383.33" height="27.45" style="fill: rgb(55, 71, 79); transform-origin: 250.005px 263.725px;" id="elcbh3i3914zn" class="animable"></rect><rect x="65.88" y="277.45" width="368.23" height="159.32" style="fill: rgb(55, 71, 79); transform-origin: 249.995px 357.11px;" id="el99ah7fnh78u" class="animable"></rect><rect x="65.88" y="277.45" width="368.23" height="16.83" style="fill: rgb(38, 50, 56); transform-origin: 249.995px 285.865px;" id="el49vtqr13xcu" class="animable"></rect><path d="M164.05,359.55a.73.73,0,0,1,.72-.72h5.94a6,6,0,0,1,0,12l-5.19.06v8.25a.74.74,0,0,1-1.47,0Zm6.66,9.84a4.55,4.55,0,0,0,0-9.09h-5.19v9.09Z" style="fill: rgb(255, 255, 255); transform-origin: 170.38px 369.312px;" id="elg5dvv3195nn" class="animable"></path><path d="M196.81,370.05H186v9.06a.74.74,0,0,1-1.47,0V359.55a.74.74,0,0,1,1.47,0v9.06h10.8v-9.06a.74.74,0,0,1,1.47,0v19.56a.74.74,0,0,1-1.47,0Z" style="fill: rgb(255, 255, 255); transform-origin: 191.4px 369.33px;" id="elt7bnvlabqmp" class="animable"></path><path d="M218.35,374.4h-9.57l-1.86,5a.74.74,0,0,1-.69.48l-.27,0a.77.77,0,0,1-.42-1l7.29-19.47a.8.8,0,0,1,.72-.45.74.74,0,0,1,.72.45l7.29,19.47a.75.75,0,0,1-.39,1c-.12,0-.18,0-.27,0a.77.77,0,0,1-.69-.48Zm-9-1.47h8.49l-4.23-11.28Z" style="fill: rgb(255, 255, 255); transform-origin: 213.555px 369.419px;" id="elxa2ix0ktr5p" class="animable"></path><path d="M239.68,375.09a3.79,3.79,0,0,0-1.71-3.18,6.71,6.71,0,0,0-2.43-1.05c-.09,0-.12-.06-.15-.06h-5.1v8.31a.74.74,0,0,1-1.47,0V359.55a.74.74,0,0,1,.66-.72h6A6,6,0,0,1,238,370.26a2.79,2.79,0,0,0,.3.15,5.31,5.31,0,0,1,2.82,4.68,8.06,8.06,0,0,0,.27,2.43,1.1,1.1,0,0,0,.3.51.79.79,0,0,1,.81.48.82.82,0,0,1-.48,1,3.16,3.16,0,0,1-.36,0h-.06a1.67,1.67,0,0,1-1.35-1A7.42,7.42,0,0,1,239.68,375.09Zm-4.2-14.79h-5.19v9.06h5.31a4.53,4.53,0,0,0-.12-9.06Z" style="fill: rgb(255, 255, 255); transform-origin: 235.678px 369.297px;" id="eldq9q52j070l" class="animable"></path><path d="M267.19,361.83l-6.72,9.33a.7.7,0,0,1-.6.33h-.06a.68.68,0,0,1-.63-.33l-6.72-9.3v17.25a.74.74,0,0,1-1.47,0V359.67a.68.68,0,0,1,.3-.57s0,0,.06-.06a.76.76,0,0,1,1,.18l7.47,10.35,7.44-10.35a.75.75,0,0,1,1-.18,1.5,1.5,0,0,1,.21.24,1,1,0,0,1,.12.39v19.44a.73.73,0,0,1-.72.72.71.71,0,0,1-.72-.72Z" style="fill: rgb(255, 255, 255); transform-origin: 259.79px 369.377px;" id="elwbh8rsr1mzs" class="animable"></path><path d="M288.85,374.4h-9.57l-1.86,5a.74.74,0,0,1-.69.48l-.27,0a.77.77,0,0,1-.42-1l7.29-19.47a.8.8,0,0,1,.72-.45.74.74,0,0,1,.72.45l7.29,19.47a.75.75,0,0,1-.39,1c-.12,0-.18,0-.27,0a.77.77,0,0,1-.69-.48Zm-9-1.47h8.49l-4.23-11.28Z" style="fill: rgb(255, 255, 255); transform-origin: 284.055px 369.419px;" id="ela07yapvetli" class="animable"></path><path d="M308.53,358.53a11.14,11.14,0,0,1,6.78,2.31.74.74,0,0,1,.12,1.05.7.7,0,0,1-1,.15,9.57,9.57,0,0,0-5.88-2,9.18,9.18,0,1,0,0,18.36,8.93,8.93,0,0,0,5.82-2,.73.73,0,0,1,1,.18.71.71,0,0,1-.09,1.05,11.11,11.11,0,0,1-6.78,2.28,10.65,10.65,0,1,1,0-21.3Z" style="fill: rgb(255, 255, 255); transform-origin: 306.712px 369.22px;" id="el7goro16fw9j" class="animable"></path><path d="M329.83,369.75l-7.05-9.63a.78.78,0,0,1,.15-1,.69.69,0,0,1,1,.12l6.57,9,6.6-9a.69.69,0,0,1,1-.12.72.72,0,0,1,.15,1l-7,9.57v9.42a.71.71,0,0,1-.72.72.73.73,0,0,1-.72-.72Z" style="fill: rgb(255, 255, 255); transform-origin: 330.525px 369.394px;" id="elt2ynitaa2ua" class="animable"></path><rect x="65.88" y="349.6" width="368.23" height="1" style="fill: rgb(255, 255, 255); transform-origin: 249.995px 350.1px;" id="elkhu679ujjsk" class="animable"></rect><rect x="65.88" y="346.72" width="368.23" height="1" style="fill: rgb(255, 255, 255); transform-origin: 249.995px 347.22px;" id="elexbngnxk3sr" class="animable"></rect><rect x="65.88" y="390.9" width="368.23" height="1" style="fill: rgb(255, 255, 255); transform-origin: 249.995px 391.4px;" id="elsl6ptuxoegn" class="animable"></rect><rect x="65.88" y="388.01" width="368.23" height="1" style="fill: rgb(255, 255, 255); transform-origin: 249.995px 388.51px;" id="el48k8jxtvjhv" class="animable"></rect><rect x="246.94" y="308.26" width="6.12" height="26.18" style="fill: rgb(235, 235, 235); transform-origin: 250px 321.35px;" id="el2601dx5nek8" class="animable"></rect><g id="elt3qavem4r5p"><rect x="246.94" y="308.26" width="6.12" height="26.18" style="fill: rgb(235, 235, 235); transform-origin: 250px 321.35px; transform: rotate(90deg);" class="animable"></rect></g></g><g id="freepik--Plant--inject-65" class="animable" style="transform-origin: 420.07px 367.465px;"><path d="M427.82,378.35s15.89-3.61,24.6-11.63S466,344.31,466,344.31A138.07,138.07,0,0,0,448.17,349a30,30,0,0,0-5.39,7.63,36.11,36.11,0,0,1,0-5.45,24.2,24.2,0,0,0-5.66,3.43C429.86,360.92,427.82,378.35,427.82,378.35Z" style="fill: rgb(0, 134, 199); transform-origin: 446.91px 361.33px;" id="el147xcgeh4z5e" class="animable"></path><path d="M456.08,351.3c2.16-1.5,4.37-2.94,6.52-4.46a.12.12,0,0,0-.13-.21c-4.09,2.45-8.13,5.06-12,7.8-1.36.95-2.69,1.95-4,3l.28-.47c.48-.8,1-1.58,1.48-2.36a33.78,33.78,0,0,1,3.38-4.51c0-.05,0-.13-.08-.07-1.24,1.42-2.47,2.84-3.6,4.35-.54.72-1,1.47-1.51,2.23q-.37.58-.72,1.2c-.07.13-.16.27-.24.41-2,1.61-4,3.29-6,5.07q-1.77,1.65-3.42,3.42c.62-1.93,1.15-3.87,1.87-5.77,0-.06-.08-.09-.11,0-.69,2-1.45,4-2,6q-1.83,2-3.48,4.1l.06-.26c.18-.75.36-1.5.56-2.24.39-1.44.81-2.87,1.3-4.28a24.62,24.62,0,0,1,4.27-8.06s0-.13-.08-.08a31.12,31.12,0,0,0-6.09,12.71q-.25,1-.48,2c-.08.36-.18.73-.24,1.1-.48.65-.95,1.31-1.4,2a69.07,69.07,0,0,0-6.73,13.18A152.76,152.76,0,0,0,418.4,403a.08.08,0,1,0,.16,0c3.11-9.3,6.28-18.73,11.61-27a60.68,60.68,0,0,1,3.62-5.08,29.87,29.87,0,0,0,7.73-1.54,34.21,34.21,0,0,0,7.75-3.74,48,48,0,0,0,4-3,.05.05,0,1,0-.07-.08,31.78,31.78,0,0,1-7.28,4.41,40.66,40.66,0,0,1-8,2.69c-1.17.25-2.36.44-3.55.6A65.62,65.62,0,0,1,439,365c.54-.54,1.09-1,1.65-1.57a37.44,37.44,0,0,1,5.87-3.36c2.6-1.26,5.17-2.59,7.75-3.9,1.45-.74,2.89-1.5,4.36-2.22.06,0,0-.12-.06-.09-2.61,1.26-5.26,2.44-7.9,3.65-2.48,1.14-5,2.28-7.37,3.62-.11,0-.2.12-.3.17,2.15-1.87,4.38-3.66,6.66-5.38C451.77,354.36,453.9,352.8,456.08,351.3Z" style="fill: rgb(38, 50, 56); transform-origin: 440.529px 374.846px;" id="elbz7y1s8q0mf" class="animable"></path><path d="M455.17,359.49c-1.29.57-2.61,1.07-3.89,1.67s-2.56,1.34-3.81,2.08c-.05,0,0,.11,0,.08,1.27-.61,2.55-1.17,3.81-1.81s2.56-1.33,3.87-1.91A.06.06,0,0,0,455.17,359.49Z" style="fill: rgb(38, 50, 56); transform-origin: 451.323px 361.408px;" id="elwcjtsqgz2vo" class="animable"></path><path d="M376.19,298.25a22.73,22.73,0,0,1,4.75,13.2c.05,1.43-.18,3.41-.34,5.75A37.74,37.74,0,0,1,391,326.06a18.83,18.83,0,0,0-10.48-2.51,30.75,30.75,0,0,0,.61,4.75,18,18,0,0,1,6.74,1.34,15.12,15.12,0,0,0-6.08,1.2c2.83,9,11.25,18.28,34.51,22.21a48.82,48.82,0,0,0-4.12-32.72C405.18,306.62,376.19,298.25,376.19,298.25Z" style="fill: rgb(0, 134, 199); transform-origin: 396.829px 325.65px;" id="elkeyrxd20ns" class="animable"></path><path d="M424.32,391.62q-.61-5.78-1.51-11.52a229,229,0,0,0-4.69-22.76A89.61,89.61,0,0,0,414.76,347a14.64,14.64,0,0,0,.09-1.87c0-.74,0-1.49,0-2.23,0-1.49-.08-3-.21-4.46a53.58,53.58,0,0,0-1.43-8.72c-.43-1.66-.92-3.29-1.41-4.93,0-.06-.12,0-.1,0a64.49,64.49,0,0,1,1.72,8.71,82.33,82.33,0,0,1,.78,8.72c0,.8,0,1.6,0,2.4,0,.34,0,.68,0,1a75.61,75.61,0,0,0-3.92-8.11,99.18,99.18,0,0,0-8-11.91,5.24,5.24,0,0,0-.19-1.3c-.11-.52-.22-1-.34-1.56-.24-1.06-.51-2.11-.79-3.17-.58-2.1-1.34-4.14-2-6.22a.06.06,0,0,0-.11,0c.62,2.06,1,4.2,1.5,6.29.23,1,.46,2.08.68,3.12.12.51.23,1,.34,1.55a.5.5,0,0,0,0,.12q-1.41-1.78-2.88-3.51c-4.44-5.2-9.31-10-14.21-14.78-.6-.58-1.22-1.16-1.83-1.73-.05-.05-.12,0-.08.08,4.69,4.88,9.3,9.82,13.66,15,1,1.22,2.06,2.47,3.07,3.73l-1.59-1c-1.35-.89-2.72-1.75-4.13-2.54s-2.84-1.56-4.29-2.28-3.08-1.34-4.52-2.18c-.06,0-.12.07-.05.1a31.92,31.92,0,0,1,4.24,2.35q2.13,1.24,4.22,2.56c1.37.87,2.74,1.72,4.1,2.61,1.13.73,2.24,1.53,3.42,2.21A111.43,111.43,0,0,1,408,335.91a82,82,0,0,1,3.85,7.3l-.84-.36-2.13-1c-1.36-.61-2.74-1.2-4.11-1.79-2.61-1.14-5.26-2.18-7.82-3.43a35.33,35.33,0,0,1-4.17-2.31c-.06,0-.11.05-.05.09,4.77,3.29,10.11,5.6,15.39,7.94l2.29,1c.62.28,1.25.59,1.9.83A81.12,81.12,0,0,1,416.28,355a216.35,216.35,0,0,1,5.06,22.5c1.34,7.59,2.24,15.24,2.94,22.92.08,1,.17,1.91.28,2.87a.31.31,0,0,0,.61,0C425.12,399.4,424.72,395.49,424.32,391.62Z" style="fill: rgb(38, 50, 56); transform-origin: 403.764px 353.967px;" id="elz3nsmjua9zd" class="animable"></path><path d="M410.17,327.4c-.43-2.37-1.06-4.68-1.69-7,0-.07-.12,0-.11,0,.59,2.27,1,4.59,1.44,6.89s.82,4.71,1.15,7.08c0,0,.07,0,.06,0A61,61,0,0,0,410.17,327.4Z" style="fill: rgb(38, 50, 56); transform-origin: 409.695px 327.369px;" id="elyqd8tl9jg5" class="animable"></path><path d="M400.15,333.81a42.6,42.6,0,0,0-5.06-2.85c-.85-.44-1.71-.85-2.56-1.27s-1.81-.78-2.69-1.22c-.06,0-.11.06,0,.09.85.43,1.66.94,2.49,1.4s1.72,1,2.58,1.41c1.71.91,3.38,1.93,5.16,2.67A.13.13,0,0,0,400.15,333.81Z" style="fill: rgb(38, 50, 56); transform-origin: 394.986px 331.255px;" id="elbu2rvotnz5g" class="animable"></path><g id="elw9y2azxkwia"><path d="M428.11,350.82s14.7-3.52,21.46-13.38c6.44-9.43,8.53-25.49,8.69-26.9-.26,1.3-3.3,15.33-13.31,21.87C437.29,337.42,429.88,341.54,428.11,350.82Z" style="fill: rgb(38, 50, 56); opacity: 0.1; transform-origin: 443.185px 330.68px;" class="animable"></path></g><path d="M441.68,325.41a18.72,18.72,0,0,0-5.42,8.93s0,0,0,0a22,22,0,0,1,5.45-8.86C441.8,325.44,441.73,325.36,441.68,325.41Z" style="fill: rgb(38, 50, 56); transform-origin: 439.007px 329.867px;" id="elk9bhhqklk6" class="animable"></path><path d="M428.11,350.82s14.7-3.52,21.46-13.38c6.44-9.43,8.53-25.49,8.69-26.9a.35.35,0,0,0,0-.1s-7,10-14.47,12.59S426,334.43,428.11,350.82Z" style="fill: rgb(0, 134, 199); transform-origin: 443.047px 330.63px;" id="eldexrra6kfvc" class="animable"></path><path d="M455.67,316a59.82,59.82,0,0,1-4.54,7.78,31.28,31.28,0,0,1-6.05,6.22c-2,1.59-4.11,3-6.13,4.58l0-.07c.38-.57.79-1.11,1.21-1.65.84-1.07,1.76-2.09,2.68-3.09,1.83-2,3.7-3.93,5.34-6.08a22.48,22.48,0,0,0,2.35-3.8c0-.06-.07-.09-.1,0-2.38,5-7.15,8.15-10.55,12.35a22.72,22.72,0,0,0-1.36,1.86,7.74,7.74,0,0,0-.84,1.49,31.27,31.27,0,0,0-5,5.07,19.47,19.47,0,0,1,.59-2.85,14.38,14.38,0,0,1,1.56-3.73c0-.06-.06-.12-.09-.06a17.52,17.52,0,0,0-1.72,3.7,13.3,13.3,0,0,0-.53,3.18h0a28.52,28.52,0,0,0-2,3.09c.06-.31.12-.63.19-.94.29-1.47.61-2.93,1-4.37a26,26,0,0,1,3.54-8.29.05.05,0,0,0-.09-.06,31.66,31.66,0,0,0-3.92,8.11c-.47,1.44-.85,2.91-1.18,4.39-.16.72-.3,1.45-.44,2.18-.07.37-.15.76-.21,1.14a53.07,53.07,0,0,0-3.4,10,146.47,146.47,0,0,0-3.13,18.6,155,155,0,0,0-1,19.74c0,.83.06,1.66.11,2.48,0,.22.33.25.34,0,.15-3.26.23-6.53.42-9.79s.48-6.52.83-9.77a176.6,176.6,0,0,1,3.06-19c1.2-5.38,2.74-10.79,5.68-15.5a29.17,29.17,0,0,1,5.31-6.31c2.06-1.85,4.31-3.47,6.49-5.19a35.41,35.41,0,0,0,5.95-5.72,47.37,47.37,0,0,0,4.68-7.59l1.06-2C455.8,316,455.71,315.91,455.67,316Z" style="fill: rgb(38, 50, 56); transform-origin: 438.81px 356.555px;" id="elpx03ou4moil" class="animable"></path><path d="M453.14,318.13a50.77,50.77,0,0,1-3.28,5.73s0,.08.07,0a39.79,39.79,0,0,0,3.31-5.74C453.27,318.1,453.17,318.07,453.14,318.13Z" style="fill: rgb(38, 50, 56); transform-origin: 451.553px 320.995px;" id="el9dvaehcb01b" class="animable"></path><path d="M374.14,344.31s-.24,20.9,12.26,26.93,19.2,1,27.69,3h0c-.33-.5-6.39-9.21-16-11.61C388.13,360.18,377.14,353,374.14,344.31Z" style="fill: rgb(0, 134, 199); transform-origin: 394.115px 359.318px;" id="elkxydrhk1me" class="animable"></path><g id="el78drzkbbml"><path d="M374.14,344.31s-.24,20.9,12.26,26.93,19.2,1,27.69,3h0a47.34,47.34,0,0,0-14.21-4.19C392,369.12,376.93,364,374.14,344.31Z" style="opacity: 0.1; transform-origin: 394.115px 359.318px;" class="animable"></path></g><path d="M414.91,374.65a20.94,20.94,0,0,0-5-3.37c-.27-.13-.54-.23-.82-.35s-.27-.32-.42-.48c-.37-.39-.76-.76-1.17-1.12a18.07,18.07,0,0,0-2.52-1.81c-2.07-1.22-4.33-2.07-6.45-3.2a.06.06,0,0,0-.05.1c1,.54,2.06,1.14,3.07,1.73s2,1.13,3,1.75a20.46,20.46,0,0,1,2.47,1.86c.22.19.43.4.65.61a34.2,34.2,0,0,0-4.23-1.12c-2.29-.46-4.6-.79-6.88-1.28a31.87,31.87,0,0,1-3.32-.89c-1-.84-2.07-1.67-3.05-2.57a24.36,24.36,0,0,1-3.23-3.58c0-.06-.14,0-.09.05a38.12,38.12,0,0,0,5.12,5.66c-.54-.21-1.07-.43-1.6-.67a25.76,25.76,0,0,1-10.65-8.85c0-.06-.13,0-.09.05a29.26,29.26,0,0,0,8.61,8.27,25.65,25.65,0,0,0,5.45,2.58,51.89,51.89,0,0,0,6.76,1.6,46.84,46.84,0,0,1,6.62,1.57,20.11,20.11,0,0,1,5.56,2.92,26,26,0,0,1,7.49,9.29,46.84,46.84,0,0,1,4.12,15.28c0,.23.37.23.36,0C424,389.89,421.68,380.75,414.91,374.65Z" style="fill: rgb(38, 50, 56); transform-origin: 402.131px 377.974px;" id="el1zmqfs3l5gv" class="animable"></path><path d="M400.41,367.83a7.19,7.19,0,0,0-2.57-2.33,9.48,9.48,0,0,1-3.06-2.53c0-.05-.13,0-.09.06a10.39,10.39,0,0,0,2.7,2.42,9.34,9.34,0,0,1,2.94,2.43C400.36,367.93,400.44,367.88,400.41,367.83Z" style="fill: rgb(38, 50, 56); transform-origin: 397.549px 365.425px;" id="elljkpeppw7a9" class="animable"></path><polygon points="407.04 390.07 407.61 401.56 409.35 436.68 435.57 436.68 437.31 401.56 437.88 390.07 407.04 390.07" style="fill: rgb(69, 90, 100); transform-origin: 422.46px 413.375px;" id="eljiybjt0ucx" class="animable"></polygon><polygon points="407.04 390.07 407.61 401.56 437.31 401.56 437.88 390.07 407.04 390.07" style="fill: rgb(38, 50, 56); transform-origin: 422.46px 395.815px;" id="ellm3xw53avcr" class="animable"></polygon><g id="el707pamvumzr"><rect x="405.2" y="385.27" width="34.51" height="10.96" style="fill: rgb(69, 90, 100); transform-origin: 422.455px 390.75px; transform: rotate(180deg);" class="animable"></rect></g></g><g id="freepik--Device--inject-65" class="animable" style="transform-origin: 340.05px 214.075px;"><polygon points="326.36 250 278.63 250 278.63 246.29 326.36 244.75 326.36 250" style="fill: rgb(69, 90, 100); transform-origin: 302.495px 247.375px;" id="elrxtsxm4dg0s" class="animable"></polygon><path d="M363.87,249.94H332.38c-2.68,0,1.21-7.65,11-10.59S367,247.07,363.87,249.94Z" style="fill: rgb(55, 71, 79); transform-origin: 347.938px 244.391px;" id="eloeqly5x8qi9" class="animable"></path><path d="M351.51,249.94a7.6,7.6,0,0,1,.24-2.64,9.48,9.48,0,0,1,1-2.47,7.81,7.81,0,0,1,1.76-2,6.19,6.19,0,0,1,2.36-1.22,20.52,20.52,0,0,0-1.82,1.78,14.07,14.07,0,0,0-1.44,2A28,28,0,0,0,351.51,249.94Z" style="fill: rgb(38, 50, 56); transform-origin: 354.176px 245.775px;" id="elu43q0g5im0r" class="animable"></path><path d="M355.25,242.66a12.5,12.5,0,0,1,2.81.92,16.14,16.14,0,0,1,2.59,1.47,10,10,0,0,1,2.19,2.08,4.24,4.24,0,0,1,1,2.81,6.12,6.12,0,0,0-1.62-2.3,17,17,0,0,0-2.18-1.77C358.53,244.76,356.88,243.78,355.25,242.66Z" style="fill: rgb(38, 50, 56); transform-origin: 359.545px 246.3px;" id="eliiio29ling" class="animable"></path><polygon points="386.47 235.13 309.92 235.13 322.1 178.14 398.64 178.14 386.47 235.13" style="fill: rgb(69, 90, 100); transform-origin: 354.28px 206.635px;" id="elbt2e4x9ly7e" class="animable"></polygon><polygon points="389.3 235.13 312.75 235.13 324.93 178.14 401.47 178.14 389.3 235.13" style="fill: rgb(55, 71, 79); transform-origin: 357.11px 206.635px;" id="elj01iya9lx7b" class="animable"></polygon><polygon points="348.01 214.7 346.22 214.7 348.94 201.91 350.74 201.91 348.01 214.7" style="fill: rgb(38, 50, 56); transform-origin: 348.48px 208.305px;" id="elp714iiogoc" class="animable"></polygon><polygon points="351.56 214.7 349.76 214.7 352.49 201.91 354.28 201.91 351.56 214.7" style="fill: rgb(38, 50, 56); transform-origin: 352.02px 208.305px;" id="elvjux2zoz6v" class="animable"></polygon><polygon points="355.1 214.7 353.3 214.7 356.03 201.91 357.82 201.91 355.1 214.7" style="fill: rgb(38, 50, 56); transform-origin: 355.56px 208.305px;" id="elnlya6uvsy4o" class="animable"></polygon><polygon points="358.64 214.7 356.84 214.7 359.57 201.91 361.36 201.91 358.64 214.7" style="fill: rgb(38, 50, 56); transform-origin: 359.1px 208.305px;" id="elmvbk1tpl4b" class="animable"></polygon><polygon points="362.18 214.7 360.39 214.7 363.11 201.91 364.91 201.91 362.18 214.7" style="fill: rgb(38, 50, 56); transform-origin: 362.65px 208.305px;" id="el48vs3ekb986" class="animable"></polygon><polygon points="365.72 214.7 363.93 214.7 366.65 201.91 368.45 201.91 365.72 214.7" style="fill: rgb(38, 50, 56); transform-origin: 366.19px 208.305px;" id="el6n2zsfvfdsn" class="animable"></polygon><polygon points="369.26 214.7 367.47 214.7 370.19 201.91 371.99 201.91 369.26 214.7" style="fill: rgb(38, 50, 56); transform-origin: 369.73px 208.305px;" id="elyrp2708vqp" class="animable"></polygon><polygon points="367.65 250.01 330 250.01 330 247.09 367.65 245.87 367.65 250.01" style="fill: rgb(69, 90, 100); transform-origin: 348.825px 247.94px;" id="el7hhmwmo0mk" class="animable"></polygon><polygon points="377.88 250.01 357.67 250.01 345.5 218.08 365.71 218.08 377.88 250.01" style="fill: rgb(69, 90, 100); transform-origin: 361.69px 234.045px;" id="elg2tzu1r00ve" class="animable"></polygon><polygon points="381.21 250.01 361 250.01 348.83 218.08 369.04 218.08 381.21 250.01" style="fill: rgb(38, 50, 56); transform-origin: 365.02px 234.045px;" id="elgv6sds1lf6l" class="animable"></polygon></g><defs>     <filter id="active" height="200%">         <feMorphology in="SourceAlpha" result="DILATED" operator="dilate" radius="2"></feMorphology>                <feFlood flood-color="#32DFEC" flood-opacity="1" result="PINK"></feFlood>        <feComposite in="PINK" in2="DILATED" operator="in" result="OUTLINE"></feComposite>        <feMerge>            <feMergeNode in="OUTLINE"></feMergeNode>            <feMergeNode in="SourceGraphic"></feMergeNode>        </feMerge>    </filter>    <filter id="hover" height="200%">        <feMorphology in="SourceAlpha" result="DILATED" operator="dilate" radius="2"></feMorphology>                <feFlood flood-color="#ff0000" flood-opacity="0.5" result="PINK"></feFlood>        <feComposite in="PINK" in2="DILATED" operator="in" result="OUTLINE"></feComposite>        <feMerge>            <feMergeNode in="OUTLINE"></feMergeNode>            <feMergeNode in="SourceGraphic"></feMergeNode>        </feMerge>            <feColorMatrix type="matrix" values="0   0   0   0   0                0   1   0   0   0                0   0   0   0   0                0   0   0   1   0 "></feColorMatrix>    </filter></defs></svg>